<svg id="Capa_1" enable-background="new 0 0 512 512" height="512" viewBox="0 0 512 512" width="512" xmlns="http://www.w3.org/2000/svg"><g><path d="m380.755 175.187s54.697 55 54.697 94.807c0 30.208-24.488 54.697-54.697 54.697-30.208 0-54.697-24.489-54.697-54.697 0-39.807 54.697-94.807 54.697-94.807z" fill="#ffe07d"/><path d="m412.95 214.53c1.997 6.528 3.161 12.94 3.161 19.03 0 33.355-27.039 60.394-60.394 60.394-9.588 0-18.648-2.244-26.7-6.22 7.37 21.497 27.742 36.956 51.738 36.956 30.208 0 54.697-24.488 54.697-54.697 0-17.539-10.621-38.028-22.502-55.463z" fill="#ffd064"/><g><g><path d="m149.535 7.5s-23.981 28.73-23.981 68.279c0 6.319.617 12.443 1.646 18.279-2.379-3.108-4.989-6.146-7.879-9.036-25.566-25.566-60.213-28.061-60.213-28.061s2.496 34.648 28.061 60.214c4.864 4.864 10.135 8.966 15.481 12.428-1.739-.13-3.502-.199-5.287-.199-28.814 0-49.746 17.986-49.746 17.986s20.932 17.986 49.746 17.986c3.405 0 6.731-.258 9.954-.701-6.537 12.816-3.745 28.679-3.745 28.679s19.979 1.004 32.974-11.99c6.901-6.901 10.991-16.23 12.99-21.982 1.998 5.753 6.088 15.081 12.99 21.982 12.995 12.995 32.974 11.99 32.974 11.99s2.793-15.863-3.745-28.679c3.223.443 6.549.701 9.954.701 28.814 0 49.746-17.986 49.746-17.986s-20.932-17.986-49.746-17.986c-1.785 0-3.548.07-5.287.199 5.346-3.462 10.617-7.564 15.481-12.428 25.566-25.566 28.061-60.214 28.061-60.214s-34.648 2.496-60.214 28.061c-2.89 2.89-5.5 5.928-7.879 9.036 1.029-5.836 1.646-11.961 1.646-18.279-.001-39.549-23.982-68.279-23.982-68.279z" fill="#b3e59f"/></g></g><g><g><path d="m135.286 342.874-56.57 32.325v64.651l56.57 32.325 56.569-32.325v-64.651z" fill="#ffe07d"/></g></g><g><path d="m411.473 212.178c-3.47 2.263-4.448 6.91-2.186 10.379 12.209 18.722 18.663 35.124 18.663 47.434 0 26.026-21.169 47.2-47.19 47.2-26.026 0-47.2-21.174-47.2-47.2 0-29.236 33.856-69.231 47.203-83.861 2.217 2.427 4.997 5.549 8.081 9.195 2.676 3.162 7.408 3.558 10.57.881 3.162-2.676 3.556-7.408.881-10.57-8.021-9.479-13.965-15.48-14.214-15.73-1.407-1.417-3.322-2.214-5.319-2.215-.001 0-.001 0-.002 0-1.996 0-3.91.796-5.318 2.211-2.323 2.335-56.882 57.682-56.882 100.089 0 34.297 27.903 62.2 62.2 62.2 34.292 0 62.19-27.903 62.19-62.2 0-15.444-7.099-34.16-21.098-55.627-2.264-3.471-6.911-4.448-10.379-2.186z"/><path d="m460.481 62.63h-21.137c-4.142 0-7.5 3.358-7.5 7.5v72.732c0 1.994.794 3.906 2.207 5.313 1.406 1.401 3.309 2.187 5.293 2.187h.027c.65-.002 15.985-.059 21.843-.161 20.939-.366 36.138-18.746 36.138-43.705.001-26.238-14.817-43.866-36.871-43.866zm.472 72.573c-3.125.055-9.192.097-14.108.124v-57.697h13.637c16.125 0 21.871 14.912 21.871 28.866 0 13.646-6.697 28.45-21.4 28.707z"/><path d="m362.32 150.362h.033c.001 0 19.428-.086 24.783-.086 14.93 0 27.077-12.147 27.077-27.077 0-9.032-4.449-17.039-11.267-21.961 2.974-4.024 4.736-8.995 4.736-14.371 0-13.364-10.872-24.236-24.235-24.236h-21.127c-4.142 0-7.5 3.358-7.5 7.5v72.732c0 1.995.795 3.908 2.208 5.315 1.407 1.399 3.309 2.184 5.292 2.184zm24.817-15.087c-3.164 0-11.226.03-17.316.055v-24.186c1.928-.008 17.316-.023 17.316-.023 6.659 0 12.077 5.418 12.077 12.077s-5.418 12.077-12.077 12.077zm-3.69-57.645c5.092 0 9.235 4.143 9.235 9.236s-4.143 9.236-9.235 9.236c-1.554 0-13.627.02-13.627.02v-18.492z"/><path d="m308.023 150.362c9.621 0 18.248-3.154 24.947-9.12 1.313-1.169 2.562-2.457 3.71-3.827 2.662-3.174 2.247-7.904-.927-10.566-3.173-2.662-7.904-2.247-10.566.927-.683.814-1.421 1.576-2.193 2.264-3.965 3.531-9.001 5.321-14.97 5.321-15.917 0-28.866-12.949-28.866-28.866s12.949-28.866 28.866-28.866c5.785 0 11.364 1.703 16.134 4.926 3.433 2.319 8.095 1.417 10.414-2.016 2.319-3.432 1.416-8.095-2.016-10.413-7.259-4.904-15.742-7.497-24.531-7.497-24.188 0-43.866 19.678-43.866 43.866-.001 24.189 19.677 43.867 43.864 43.867z"/><path d="m42.733 153.079c.934.802 23.071 19.514 53.944 19.788-2.286 11.221-.592 21.225-.494 21.782.606 3.446 3.514 6.015 7.008 6.191.122.006.6.027 1.373.027 5.245 0 24.058-.974 37.289-14.204.063-.063.12-.132.183-.196v1.564c0 3.393-1.321 6.583-3.721 8.983l-2.164 2.164c-2.929 2.929-2.929 7.678 0 10.606 1.464 1.464 3.384 2.197 5.303 2.197s3.839-.732 5.303-2.197l2.165-2.165c5.232-5.233 8.114-12.189 8.114-19.589v-1.573c.065.066.123.137.189.202 15.172 15.184 37.706 14.23 38.654 14.179 3.494-.176 6.402-2.745 7.008-6.191.098-.558 1.792-10.562-.494-21.782 30.873-.274 53.011-18.986 53.944-19.788 1.658-1.424 2.612-3.502 2.613-5.688s-.953-4.264-2.611-5.688c-.786-.675-16.576-14.034-39.953-18.42.274-.268.546-.538.816-.808 27.235-27.224 30.129-63.448 30.238-64.977.156-2.171-.639-4.303-2.178-5.842s-3.667-2.334-5.842-2.176c-1.408.102-32.271 2.575-58.419 24.269-.778-40.726-24.669-69.816-25.703-71.054-1.425-1.706-3.534-2.693-5.757-2.693 0 0 0 0-.001 0-2.223 0-4.332.986-5.757 2.693-1.034 1.238-24.935 30.327-25.714 71.054-26.14-21.691-57.011-24.166-58.42-24.268-2.168-.163-4.304.638-5.843 2.177-1.54 1.54-2.334 3.672-2.177 5.843.035.478.907 11.882 6.253 26.566 1.417 3.893 5.724 5.9 9.613 4.481 3.892-1.417 5.898-5.721 4.481-9.613-1.76-4.834-2.962-9.262-3.775-12.888 11.289 2.533 30.407 8.87 45.814 24.277 2.485 2.485 4.917 5.276 7.228 8.295 2.102 2.746 5.808 3.699 8.972 2.308 3.166-1.391 4.97-4.765 4.369-8.17-1.019-5.778-1.536-11.49-1.536-16.977 0-24.258 9.896-44.395 16.488-55.116 6.594 10.728 16.484 30.861 16.484 55.118 0 5.486-.517 11.198-1.536 16.978-.6 3.405 1.205 6.779 4.37 8.169 3.166 1.392 6.87.437 8.972-2.309 2.31-3.018 4.741-5.809 7.226-8.294 15.316-15.31 34.47-21.678 45.789-24.244-2.565 11.326-8.933 30.481-24.25 45.792-4.142 4.151-8.934 7.997-14.244 11.43-2.878 1.862-4.128 5.438-3.036 8.688s4.253 5.341 7.667 5.089c1.595-.119 3.187-.179 4.732-.179 15.391 0 28.464 5.828 36.458 10.488-7.998 4.66-21.069 10.482-36.458 10.482-2.93 0-5.933-.211-8.925-.628-2.768-.387-5.523.8-7.145 3.078-1.622 2.277-1.842 5.268-.571 7.758 2.934 5.751 3.552 12.483 3.52 17.347-5.863-.811-14.474-3.082-20.76-9.373-5.617-5.61-9.06-13.273-10.793-17.987v-1.491l12.956-12.956c2.929-2.929 2.929-7.678 0-10.606-2.929-2.929-7.678-2.929-10.606 0l-2.349 2.349v-6.137c0-4.142-3.358-7.5-7.5-7.5s-7.5 3.358-7.5 7.5v6.138l-2.35-2.35c-2.929-2.93-7.678-2.929-10.606 0-2.929 2.929-2.929 7.678 0 10.606l12.956 12.956v1.508c-1.747 4.727-5.2 12.385-10.789 17.974-6.291 6.291-14.907 8.56-20.765 9.37-.033-4.867.585-11.598 3.52-17.349 1.271-2.491 1.05-5.481-.572-7.758-1.622-2.278-4.382-3.464-7.145-3.078-2.992.417-5.995.628-8.925.628-15.39 0-28.464-5.824-36.458-10.481 7.996-4.662 21.067-10.488 36.457-10.488 1.545 0 3.137.061 4.731.179 3.421.261 6.576-1.84 7.667-5.089 1.092-3.25-.157-6.826-3.036-8.688-5.31-3.434-10.102-7.279-14.25-11.436-1.614-1.614-3.143-3.281-4.543-4.953-2.661-3.176-7.391-3.593-10.565-.934-3.175 2.66-3.593 7.391-.934 10.565 1.683 2.009 3.512 4.003 5.43 5.922.272.273.547.544.824.814-23.377 4.386-39.167 17.745-39.953 18.42-1.658 1.425-2.612 3.502-2.611 5.688s.955 4.267 2.613 5.691z"/><path d="m336.091 365.489c3.563-2.112 4.74-6.712 2.628-10.276-2.111-3.562-6.711-4.74-10.276-2.628l-23.519 13.937-49-28v-27.973c0-4.142-3.358-7.5-7.5-7.5s-7.5 3.358-7.5 7.5v27.973l-49.072 28.041-49.066-28.047v-60.292c0-2.691-1.442-5.177-3.779-6.512l-52.791-30.166v-27.973c0-4.142-3.358-7.5-7.5-7.5s-7.5 3.358-7.5 7.5v27.973l-52.79 30.166c-2.336 1.335-3.779 3.82-3.779 6.512v64.65c0 2.691 1.442 5.176 3.779 6.512l52.794 30.168v12.186c0 4.142 3.358 7.5 7.5 7.5s7.5-3.358 7.5-7.5v-12.188l49.07-28.043 49.06 28.042v55.946l-49.061 28.035-49.069-28.035v-8.757c0-4.142-3.358-7.5-7.5-7.5s-7.5 3.358-7.5 7.5v13.11c0 2.691 1.442 5.177 3.779 6.512l52.786 30.158v27.98c0 4.142 3.358 7.5 7.5 7.5s7.5-3.358 7.5-7.5v-27.975l49.067-28.038 49.071 28.041v27.972c0 4.142 3.358 7.5 7.5 7.5s7.5-3.358 7.5-7.5v-27.973l49-28 23.519 13.937c1.2.711 2.517 1.049 3.816 1.049 2.562 0 5.059-1.313 6.459-3.677 2.112-3.563.935-8.164-2.628-10.276l-23.598-13.984v-56.103zm-306.444-82.913 49.069-28.04 49.069 28.04v55.944l-49.069 28.041-49.069-28.04zm267.846 152.921-49.069 28.04-49.069-28.04v-55.945l49.069-28.04 49.069 28.04z"/></g></g></svg>