<svg enable-background="new 0 0 256 256" height="512" viewBox="0 0 256 256" width="512" xmlns="http://www.w3.org/2000/svg"><g id="Layer_42"><g><g><path d="m208 251h-160c-1.381 0-2.5 1.119-2.5 2.5s1.119 2.5 2.5 2.5h160c1.381 0 2.5-1.119 2.5-2.5s-1.119-2.5-2.5-2.5z"/></g></g><g><g><g><path d="m221.937 103.204c-2.414.214-4.647-1.306-5.552-3.554-1.804-4.481-6.433-7.326-11.222-6.976-2.478.181-4.791-1.231-5.718-3.537-1.803-4.483-6.433-7.328-11.223-6.978-2.479.181-4.791-1.231-5.719-3.537-1.804-4.482-6.433-7.329-11.224-6.978-2.478.181-4.79-1.232-5.718-3.537-1.805-4.487-6.441-7.334-11.236-6.978-1.175.087-2.301-.197-3.268-.754.155.906.417 1.793.792 2.635.381.856.214 1.829-.285 2.622-.003.005-.006.01-.009.014-.633 1.014-.893 2.153-.82 3.261.092 1.386-.981 2.587-2.355 2.788-5.427.793-11.152-.258-16.168-3.39s-8.475-7.814-10.144-13.038c-.394-1.234.116-2.603 1.228-3.21-1.629-.929-3.511-1.465-5.521-1.465-4.657 0-8.701 2.864-10.372 6.97-.942 2.313-3.24 3.754-5.731 3.569-4.794-.356-9.432 2.491-11.237 6.978-.927 2.305-3.239 3.717-5.717 3.536-4.79-.35-9.42 2.496-11.224 6.979-.927 2.305-3.239 3.717-5.717 3.536-4.789-.35-9.42 2.496-11.224 6.979-.927 2.305-3.239 3.717-5.717 3.536-4.788-.349-9.418 2.495-11.223 6.976-.905 2.248-3.138 3.767-5.552 3.553-6.265-.555-12.336 4.365-12.184 11.419.042 1.968.613 3.796 1.564 5.377h209.115c.95-1.58 1.52-3.407 1.564-5.373.156-7.054-5.916-11.979-12.183-11.423z" fill="#818182"/></g></g><g><g><path d="m167.78 40.629c-1.67-5.224-5.128-9.906-10.144-13.038s-10.742-4.184-16.168-3.39c-1.374.201-2.447 1.402-2.355 2.788.073 1.108-.187 2.247-.82 3.261-.003.005-.006.01-.009.014-.499.793-.666 1.766-.285 2.622 1.436 3.225 1.303 7.077-.708 10.296-2.01 3.22-5.413 5.031-8.941 5.156-.936.033-1.737.611-2.231 1.407-.003.005-.006.01-.009.014-.633 1.014-1.542 1.748-2.57 2.169-1.286.526-1.894 2.017-1.471 3.34 1.67 5.224 5.128 9.906 10.144 13.038s10.742 4.184 16.168 3.39c1.374-.201 2.447-1.402 2.355-2.788-.073-1.108.187-2.247.82-3.261.003-.005.006-.01.009-.014.499-.793.666-1.766.285-2.622-1.436-3.225-1.303-7.077.708-10.296 2.01-3.22 5.413-5.03 8.941-5.156.936-.033 1.737-.611 2.231-1.407.003-.005.006-.009.009-.014.633-1.014 1.542-1.748 2.57-2.169 1.285-.526 1.894-2.017 1.471-3.34z" fill="#fc657e"/></g></g><g><g><path d="m97.549 40.89-1.483-4.728c-2.19-6.982-9.695-10.902-16.677-8.712l-1.058.332c-6.982 2.19-10.902 9.695-8.712 16.677l2.965 9.453c.318 1.014 1.182 1.762 2.231 1.931l6.2.999c.43.069.87.038 1.286-.093l8.393-2.633c.961-.301 1.687-1.095 1.902-2.078l1.213-5.551c.215-.984.941-1.777 1.902-2.078 1.48-.465 2.302-2.04 1.838-3.519z" fill="#fc8c48"/></g></g><g><g><circle cx="161" cy="97" fill="#b2e26d" r="8.5"/></g></g><g><g><path d="m119.338 111.299c-1.033-.069-2.098-.291-3.184-.698-3.517-1.318-6.176-4.424-6.893-8.111-.372-1.913-.237-3.752.285-5.421.407-1.3-.125-2.7-1.279-3.423-2.172-1.36-3.617-3.771-3.617-6.523 0-.247.012-.49.035-.731.157-1.635-.871-3.168-2.496-3.407-2.468-.363-5.054-.361-7.71.079-10.945 1.815-19.464 10.939-20.514 21.984-.521 5.481.755 10.634 3.298 14.951h42.644c.883-1.491 1.633-3.07 2.187-4.744.632-1.905-.753-3.822-2.756-3.956z" fill="#f5c84c"/></g></g><g><g><path d="m123.61 15.51c-3.158-.561-5.613-3.017-6.245-6.104 0-.14-.281-.14-.281 0-.631 3.087-3.087 5.543-6.245 6.104-.14 0-.14.211 0 .281 3.158.561 5.613 3.017 6.245 6.104 0 .14.281.14.281 0 .631-3.087 3.087-5.543 6.245-6.104.14-.071.14-.281 0-.281z" fill="#70d6f9"/></g></g><g><g><path d="m30.7 53.646h-2.3v-2.3c0-1.7-1.4-3.2-3.2-3.2s-3.2 1.4-3.2 3.2v2.3h-2.3c-1.7 0-3.2 1.4-3.2 3.2s1.4 3.2 3.2 3.2h2.3v2.3c0 1.7 1.4 3.2 3.2 3.2s3.2-1.4 3.2-3.2v-2.3h2.3c1.7 0 3.2-1.4 3.2-3.2 0-1.799-1.4-3.2-3.2-3.2z" fill="#87d147"/></g></g><g><g><path d="m49.8 68.2c-1.878 0-3.4 1.522-3.4 3.4s1.522 3.4 3.4 3.4 3.4-1.522 3.4-3.4-1.523-3.4-3.4-3.4z" fill="#f5c84c"/></g></g><g><g><path d="m219.8 27.396c-4.5-.8-8-4.3-8.9-8.7 0-.2-.4-.2-.4 0-.9 4.4-4.4 7.9-8.9 8.7-.2 0-.2.3 0 .4 4.5.8 8 4.3 8.9 8.7 0 .2.4.2.4 0 .9-4.4 4.4-7.9 8.9-8.7.2-.099.2-.4 0-.4z" fill="#f5c84c"/></g></g><g><g><path d="m188.8 0c-1.878 0-3.4 1.522-3.4 3.4s1.522 3.4 3.4 3.4 3.4-1.522 3.4-3.4-1.523-3.4-3.4-3.4z" fill="#fc657e"/></g></g><g><g><path d="m171.105 17.376c-.375-.059-9.226-1.302-15.325 8.466-.731 1.171-.375 2.714.796 3.445.412.257.87.38 1.322.38.834 0 1.649-.417 2.123-1.176 4.277-6.852 10.049-6.209 10.343-6.17 1.359.195 2.62-.736 2.83-2.092.211-1.365-.725-2.642-2.089-2.853z"/></g></g><g><g><path d="m80.662 25.006-5.245-16.72c-.413-1.317-1.815-2.049-3.133-1.637-1.317.413-2.051 1.816-1.637 3.133l5.245 16.72c.335 1.069 1.321 1.752 2.385 1.752.248 0 .5-.037.749-.115 1.316-.412 2.05-1.815 1.636-3.133z"/></g></g><g><g><path d="m76.017 26.225-9.549-9.653c-.972-.981-2.554-.99-3.536-.019-.981.971-.99 2.554-.019 3.536l9.549 9.653c.489.494 1.133.742 1.777.742.635 0 1.271-.241 1.758-.723.982-.972.991-2.554.02-3.536z"/></g></g><g><g><path d="m85.616 9.437c-1.36-.24-2.654.674-2.891 2.035l-2.324 13.378c-.236 1.36.675 2.654 2.035 2.891.145.025.289.038.431.038 1.193 0 2.249-.857 2.46-2.073l2.324-13.378c.237-1.361-.674-2.655-2.035-2.891z"/></g></g><g><g><path d="m81.522 43.653c-.413-1.318-1.815-2.052-3.133-1.637l-6.679 2.095c-1.318.413-2.051 1.816-1.637 3.133.335 1.069 1.321 1.752 2.385 1.752.248 0 .5-.037.749-.115l6.679-2.095c1.317-.412 2.05-1.815 1.636-3.133z"/></g></g><g><g><path d="m123.936 49.563c-1.926-.976-3.999-1.47-6.159-1.47-5.599 0-10.58 3.347-12.688 8.527-.534 1.312-1.834 2.121-3.23 2.019-5.885-.431-11.543 3.074-13.742 8.538-.517 1.284-1.807 2.074-3.215 1.976-5.894-.429-11.529 3.083-13.725 8.54-.517 1.284-1.813 2.072-3.216 1.976-5.885-.438-11.529 3.081-13.726 8.539-.517 1.284-1.81 2.071-3.216 1.976-5.887-.441-11.527 3.081-13.723 8.536-.518 1.287-1.759 2.111-3.013 1.997-3.871-.343-7.738 1.001-10.61 3.688-2.854 2.67-4.379 6.319-4.294 10.274.043 2.014.53 3.95 1.446 5.754.441.869 1.319 1.369 2.231 1.369.381 0 .767-.087 1.13-.271 1.231-.625 1.722-2.13 1.097-3.361-.574-1.13-.878-2.341-.905-3.599-.054-2.515.908-4.829 2.71-6.515 1.835-1.717 4.296-2.575 6.753-2.359 3.43.303 6.758-1.796 8.092-5.109 1.395-3.462 4.983-5.679 8.722-5.417 3.582.268 6.887-1.786 8.218-5.096 1.394-3.464 4.978-5.694 8.723-5.419 3.586.267 6.886-1.786 8.218-5.096 1.394-3.463 4.978-5.69 8.722-5.419 3.583.268 6.887-1.786 8.218-5.096 1.395-3.468 4.981-5.7 8.733-5.418 3.565.262 6.877-1.792 8.231-5.12 1.338-3.288 4.5-5.412 8.057-5.412 1.368 0 2.681.313 3.9.931 1.229.622 2.735.13 3.36-1.101.626-1.234.133-2.738-1.099-3.362z"/></g></g><g><g><path d="m232.327 104.403c-2.873-2.688-6.74-4.032-10.611-3.689-1.251.106-2.494-.711-3.012-1.998-2.196-5.456-7.844-8.962-13.723-8.535-1.415.103-2.699-.692-3.216-1.977-2.196-5.458-7.854-8.975-13.725-8.538-1.412.104-2.699-.692-3.217-1.977-2.197-5.458-7.844-8.973-13.725-8.538-1.42.094-2.699-.692-3.216-1.977-2.199-5.465-7.848-8.976-13.741-8.538-.514.039-1.018-.049-1.5-.258-1.267-.552-2.738.028-3.291 1.293-.551 1.266.027 2.739 1.293 3.291 1.216.53 2.554.757 3.868.661 3.743-.273 7.335 1.949 8.731 5.417 1.332 3.311 4.642 5.357 8.219 5.097 3.747-.277 7.328 1.954 8.722 5.417 1.333 3.312 4.643 5.359 8.22 5.097 3.744-.27 7.328 1.955 8.721 5.417 1.331 3.311 4.628 5.359 8.22 5.098 3.728-.271 7.326 1.954 8.72 5.416 1.334 3.314 4.667 5.417 8.092 5.111 2.458-.22 4.918.643 6.754 2.36 1.803 1.687 2.766 4.002 2.71 6.518-.028 1.276-.341 2.502-.93 3.645-.633 1.227-.151 2.735 1.076 3.368.367.189.758.279 1.144.279.906 0 1.78-.494 2.224-1.354.941-1.824 1.441-3.785 1.486-5.827.088-3.957-1.437-7.607-4.293-10.279z"/></g></g><g><g><g><path d="m170.161 39.868c-1.906-5.964-5.884-11.078-11.201-14.398s-11.659-4.65-17.854-3.743c-2.691.394-4.663 2.777-4.488 5.427.042.625-.113 1.238-.451 1.78-.977 1.554-1.146 3.412-.452 4.969 1.153 2.59.949 5.564-.544 7.956-1.494 2.393-4.076 3.881-6.908 3.982-1.705.061-3.3 1.028-4.261 2.577-.004.006-.008.013-.013.021-.333.532-.815.939-1.395 1.177-2.457 1.006-3.733 3.824-2.905 6.415 1.906 5.964 5.884 11.078 11.202 14.398 4.228 2.64 9.102 4.021 14.036 4.021 1.271 0 2.548-.092 3.817-.277 2.691-.394 4.663-2.777 4.488-5.427-.042-.625.113-1.238.451-1.78.977-1.554 1.146-3.412.452-4.969-1.152-2.589-.949-5.563.544-7.956 1.494-2.393 4.077-3.881 6.909-3.982 1.705-.061 3.299-1.028 4.271-2.595.334-.534.817-.942 1.397-1.18 2.457-1.008 3.733-3.825 2.905-6.416zm-4.799 1.787c-1.556.637-2.851 1.729-3.757 3.18-.099.16-.199.222-.195.225-4.496.161-8.598 2.527-10.972 6.331-2.375 3.804-2.7 8.528-.878 12.613.002.022-.01.14-.123.319-.893 1.429-1.306 3.071-1.194 4.747-.007.03-.088.133-.223.153-5.023.734-10.167-.344-14.482-3.037-4.314-2.693-7.541-6.841-9.087-11.679-.042-.13.016-.248.037-.266 1.557-.637 2.852-1.729 3.743-3.159.001-.001.011-.018.012-.02.1-.161.2-.223.196-.226 4.495-.161 8.597-2.527 10.972-6.331 2.375-3.803 2.7-8.527.878-12.613-.002-.022.01-.139.123-.319.892-1.429 1.305-3.072 1.194-4.747.007-.03.088-.133.223-.153 1.03-.15 2.064-.225 3.096-.225 4.002 0 7.958 1.121 11.387 3.262 4.314 2.693 7.541 6.841 9.087 11.679.041.131-.016.249-.037.266z"/></g></g></g><g><g><g><path d="m99.935 40.143-1.483-4.728c-1.259-4.014-4.018-7.304-7.769-9.264-3.751-1.958-8.026-2.346-12.041-1.086l-1.059.332c-8.314 2.608-12.958 11.495-10.349 19.811l2.966 9.452c.606 1.93 2.223 3.329 4.219 3.65l6.2.999c.278.044.56.067.841.067.539 0 1.078-.082 1.591-.243l8.392-2.632c1.812-.568 3.19-2.074 3.596-3.931l1.213-5.549c.023-.108.104-.195.208-.228 2.792-.876 4.351-3.859 3.475-6.65zm-4.792 1.729c-.039.075-.099.125-.18.15-1.812.569-3.189 2.075-3.595 3.93l-1.213 5.549c-.023.108-.103.195-.208.228l-8.393 2.633c-.045.014-.093.018-.14.01l-6.2-.999c-.115-.019-.208-.1-.244-.211l-2.965-9.452c-1.783-5.685 1.391-11.76 7.075-13.543l1.059-.332c1.055-.331 2.138-.495 3.217-.495 1.721 0 3.434.418 5.012 1.242 2.567 1.341 4.454 3.589 5.313 6.328l1.483 4.728c.025.081.018.159-.021.234z"/></g></g></g><g><g><g><path d="m161 86c-6.065 0-11 4.935-11 11s4.935 11 11 11 11-4.935 11-11-4.935-11-11-11zm0 17c-3.309 0-6-2.691-6-6s2.691-6 6-6 6 2.691 6 6-2.691 6-6 6z"/></g></g></g><g><g><path d="m123.816 111.273c-.976-1.451-2.547-2.35-4.312-2.469-.823-.055-1.655-.238-2.473-.544-2.729-1.022-4.766-3.416-5.316-6.247-.279-1.434-.206-2.846.217-4.197.743-2.375-.218-4.96-2.338-6.289-1.53-.958-2.443-2.604-2.443-4.404 0-.167.008-.331.023-.491.291-3.009-1.739-5.697-4.621-6.121-2.8-.411-5.654-.382-8.482.087-12.139 2.012-21.43 11.97-22.594 24.214-.503 5.289.514 10.549 2.942 15.211.637 1.225 2.146 1.701 3.372 1.063 1.225-.638 1.7-2.147 1.063-3.372-1.981-3.805-2.811-8.102-2.399-12.429.949-9.989 8.53-18.112 18.434-19.754 2.315-.385 4.649-.409 6.937-.072.267.039.4.39.371.696-.03.319-.046.642-.046.968 0 3.534 1.791 6.765 4.79 8.642.198.124.286.348.221.558-.673 2.152-.792 4.388-.354 6.645.88 4.525 4.125 8.347 8.47 9.975 1.274.478 2.585.764 3.895.852.297.02.446.195.496.27.126.188.072.353.054.407-.383 1.159-.898 2.334-1.531 3.494-.661 1.212-.214 2.731.998 3.392.38.207.791.306 1.195.306.886 0 1.744-.471 2.197-1.303.776-1.423 1.412-2.876 1.888-4.318.534-1.62.297-3.357-.654-4.77z"/></g></g><g><g><path d="m48 145h160v83.5h-160z" fill="#754e34"/></g></g><g><g><path d="m25 120h23v133.5h-23z" fill="#c18e6b"/></g></g><g><g><path d="m208 120h23v133.5h-23z" fill="#c18e6b"/></g></g><g><g><path d="m48 120h160v25h-160z" fill="#a57453"/></g></g><g><g><path d="m18.096 120c-1.805 0-3.267 1.463-3.267 3.267v18.465c0 1.804 1.463 3.267 3.267 3.267h6.904v-25h-6.904z" fill="#a57453"/></g></g><g><g><path d="m237.904 120h-6.904v25h6.904c1.805 0 3.267-1.463 3.267-3.267v-18.465c0-1.805-1.462-3.268-3.267-3.268z" fill="#a57453"/></g></g><g><g><path d="m18.096 156.167c-1.805 0-3.267 1.463-3.267 3.268v18.465c0 1.804 1.463 3.267 3.267 3.267h6.904v-25z" fill="#a57453"/></g></g><g><g><path d="m48 156.167h160v25h-160z" fill="#a57453"/></g></g><g><g><path d="m237.904 156.167h-6.904v25h6.904c1.805 0 3.267-1.463 3.267-3.267v-18.465c0-1.806-1.462-3.268-3.267-3.268z" fill="#a57453"/></g></g><g><g><path d="m48 192.333h160v25h-160z" fill="#a57453"/></g></g><g><g><path d="m18.096 192.333c-1.805 0-3.267 1.463-3.267 3.267v18.465c0 1.805 1.463 3.267 3.267 3.267h6.904v-25h-6.904z" fill="#a57453"/></g></g><g><g><path d="m237.904 192.333h-6.904v25h6.904c1.805 0 3.267-1.463 3.267-3.267v-18.465c0-1.805-1.462-3.268-3.267-3.268z" fill="#a57453"/></g></g><g><g><path d="m48 228.5h160v25h-160z" fill="#a57453"/></g></g><g><g><path d="m237.904 228.5h-6.904v25h6.904c1.805 0 3.267-1.463 3.267-3.267v-18.465c0-1.805-1.462-3.268-3.267-3.268z" fill="#a57453"/></g></g><g><g><path d="m18.096 228.5c-1.805 0-3.267 1.463-3.267 3.267v18.465c0 1.804 1.463 3.267 3.267 3.267h6.904v-25h-6.904z" fill="#a57453"/></g></g><g><g><path d="m36.5 130h-1c-1.381 0-2.5 1.119-2.5 2.5s1.119 2.5 2.5 2.5h1c1.381 0 2.5-1.119 2.5-2.5s-1.119-2.5-2.5-2.5z"/></g></g><g><g><path d="m36.5 166h-1c-1.381 0-2.5 1.119-2.5 2.5s1.119 2.5 2.5 2.5h1c1.381 0 2.5-1.119 2.5-2.5s-1.119-2.5-2.5-2.5z"/></g></g><g><g><path d="m36.5 202h-1c-1.381 0-2.5 1.119-2.5 2.5s1.119 2.5 2.5 2.5h1c1.381 0 2.5-1.119 2.5-2.5s-1.119-2.5-2.5-2.5z"/></g></g><g><g><path d="m36.5 239h-1c-1.381 0-2.5 1.119-2.5 2.5s1.119 2.5 2.5 2.5h1c1.381 0 2.5-1.119 2.5-2.5s-1.119-2.5-2.5-2.5z"/></g></g><g><g><path d="m220.5 130h-1c-1.381 0-2.5 1.119-2.5 2.5s1.119 2.5 2.5 2.5h1c1.381 0 2.5-1.119 2.5-2.5s-1.119-2.5-2.5-2.5z"/></g></g><g><g><path d="m220.5 166h-1c-1.381 0-2.5 1.119-2.5 2.5s1.119 2.5 2.5 2.5h1c1.381 0 2.5-1.119 2.5-2.5s-1.119-2.5-2.5-2.5z"/></g></g><g><g><path d="m220.5 202h-1c-1.381 0-2.5 1.119-2.5 2.5s1.119 2.5 2.5 2.5h1c1.381 0 2.5-1.119 2.5-2.5s-1.119-2.5-2.5-2.5z"/></g></g><g><g><path d="m220.5 239h-1c-1.381 0-2.5 1.119-2.5 2.5s1.119 2.5 2.5 2.5h1c1.381 0 2.5-1.119 2.5-2.5s-1.119-2.5-2.5-2.5z"/></g></g><g><g><g><g><path d="m48 117.5h-23c-1.381 0-2.5 1.119-2.5 2.5v133.5c0 1.381 1.119 2.5 2.5 2.5h23c1.381 0 2.5-1.119 2.5-2.5v-133.5c0-1.381-1.119-2.5-2.5-2.5zm-2.5 133.5h-18v-128.5h18z"/></g></g></g></g><g><g><g><path d="m231 117.5h-23c-1.381 0-2.5 1.119-2.5 2.5v133.5c0 1.381 1.119 2.5 2.5 2.5h23c1.381 0 2.5-1.119 2.5-2.5v-133.5c0-1.381-1.119-2.5-2.5-2.5zm-2.5 133.5h-18v-128.5h18z"/></g></g></g><g><g><path d="m206.708 142.5h-157.375c-1.381 0-2.5 1.119-2.5 2.5s1.119 2.5 2.5 2.5h157.375c1.381 0 2.5-1.119 2.5-2.5s-1.12-2.5-2.5-2.5z"/></g></g><g><g><path d="m18.096 122.5h6.904c1.381 0 2.5-1.119 2.5-2.5s-1.119-2.5-2.5-2.5h-6.904c-3.18 0-5.767 2.587-5.767 5.768v18.465c0 3.18 2.587 5.768 5.767 5.768h5.904c1.381 0 2.5-1.119 2.5-2.5s-1.119-2.5-2.5-2.5h-5.904c-.423 0-.767-.344-.767-.768v-18.465c0-.424.344-.768.767-.768z"/></g></g><g><g><path d="m237.904 117.5h-6.904c-1.381 0-2.5 1.119-2.5 2.5s1.119 2.5 2.5 2.5h6.904c.423 0 .767.344.767.768v18.465c0 .423-.344.768-.767.768h-5.571c-1.381 0-2.5 1.119-2.5 2.5s1.119 2.5 2.5 2.5h5.571c3.18 0 5.767-2.587 5.767-5.768v-18.465c0-3.181-2.587-5.768-5.767-5.768z"/></g></g><g><g><path d="m23.583 178.667h-5.487c-.423 0-.767-.344-.767-.767v-18.465c0-.423.344-.768.767-.768h5.529c1.381 0 2.5-1.119 2.5-2.5s-1.119-2.5-2.5-2.5h-5.529c-3.18 0-5.767 2.587-5.767 5.768v18.465c0 3.18 2.587 5.767 5.767 5.767h5.487c1.381 0 2.5-1.119 2.5-2.5s-1.119-2.5-2.5-2.5z"/></g></g><g><g><path d="m206.75 178.667h-157.917c-1.381 0-2.5 1.119-2.5 2.5s1.119 2.5 2.5 2.5h157.917c1.381 0 2.5-1.119 2.5-2.5s-1.119-2.5-2.5-2.5z"/></g></g><g><g><path d="m206.875 153.667h-158.042c-1.381 0-2.5 1.119-2.5 2.5s1.119 2.5 2.5 2.5h158.042c1.381 0 2.5-1.119 2.5-2.5s-1.119-2.5-2.5-2.5z"/></g></g><g><g><path d="m237.904 153.667h-5.404c-1.381 0-2.5 1.119-2.5 2.5s1.119 2.5 2.5 2.5h5.404c.423 0 .767.344.767.768v18.465c0 .423-.344.767-.767.767h-5.571c-1.381 0-2.5 1.119-2.5 2.5s1.119 2.5 2.5 2.5h5.571c3.18 0 5.767-2.587 5.767-5.767v-18.465c0-3.181-2.587-5.768-5.767-5.768z"/></g></g><g><g><path d="m207.063 214.833h-157.771c-1.381 0-2.5 1.119-2.5 2.5s1.119 2.5 2.5 2.5h157.771c1.381 0 2.5-1.119 2.5-2.5s-1.119-2.5-2.5-2.5z"/></g></g><g><g><path d="m207.167 189.833h-157.875c-1.381 0-2.5 1.119-2.5 2.5s1.119 2.5 2.5 2.5h157.875c1.381 0 2.5-1.119 2.5-2.5s-1.12-2.5-2.5-2.5z"/></g></g><g><g><path d="m23.563 214.833h-5.467c-.423 0-.767-.344-.767-.767v-18.465c0-.423.344-.768.767-.768h5.529c1.381 0 2.5-1.119 2.5-2.5s-1.119-2.5-2.5-2.5h-5.529c-3.18 0-5.767 2.587-5.767 5.768v18.465c0 3.18 2.587 5.767 5.767 5.767h5.467c1.381 0 2.5-1.119 2.5-2.5s-1.119-2.5-2.5-2.5z"/></g></g><g><g><path d="m237.904 189.833h-5.404c-1.381 0-2.5 1.119-2.5 2.5s1.119 2.5 2.5 2.5h5.404c.423 0 .767.344.767.768v18.465c0 .423-.344.767-.767.767h-5.571c-1.381 0-2.5 1.119-2.5 2.5s1.119 2.5 2.5 2.5h5.571c3.18 0 5.767-2.587 5.767-5.767v-18.465c0-3.181-2.587-5.768-5.767-5.768z"/></g></g><g><g><path d="m206.563 226h-157.375c-1.381 0-2.5 1.119-2.5 2.5s1.119 2.5 2.5 2.5h157.375c1.381 0 2.5-1.119 2.5-2.5s-1.119-2.5-2.5-2.5z"/></g></g><g><g><path d="m237.904 226h-6.311c-1.381 0-2.5 1.119-2.5 2.5s1.119 2.5 2.5 2.5h6.311c.423 0 .767.344.767.768v18.465c0 .423-.344.767-.767.767h-6.904c-1.381 0-2.5 1.119-2.5 2.5s1.119 2.5 2.5 2.5h6.904c3.18 0 5.767-2.587 5.767-5.767v-18.465c0-3.181-2.587-5.768-5.767-5.768z"/></g></g><g><g><path d="m25 251h-6.904c-.423 0-.767-.344-.767-.767v-18.465c0-.423.344-.768.767-.768h5.749c1.381 0 2.5-1.119 2.5-2.5s-1.119-2.5-2.5-2.5h-5.749c-3.18 0-5.767 2.587-5.767 5.768v18.465c0 3.18 2.587 5.767 5.767 5.767h6.904c1.381 0 2.5-1.119 2.5-2.5s-1.119-2.5-2.5-2.5z"/></g></g><g><g><path d="m208 117.5h-160c-1.381 0-2.5 1.119-2.5 2.5s1.119 2.5 2.5 2.5h160c1.381 0 2.5-1.119 2.5-2.5s-1.119-2.5-2.5-2.5z"/></g></g></g></g></svg>