<svg height="512" viewBox="0 0 64 64" width="512" xmlns="http://www.w3.org/2000/svg"><g id="_36-dump_truck" data-name="36-dump truck"><path d="m25.538 35h-14.538v-10h13z" fill="#94350f"/><path d="m7.875 40h-6.875v6h5v-3z" fill="#ad9990"/><path d="m11 33h-9v7h5.875l3.125-5z" fill="#6e5f5c"/><path d="m52 35-3 5-10 6h-19.54a3.993 3.993 0 0 0 -6.92 0h-6.54v-3l5-8z" fill="#ffc630"/><path d="m27 44h9v5h-9z" fill="#ad9990"/><path d="m28 38a3 3 0 0 0 3 3h2a3 3 0 0 0 3-3z" fill="#94350f"/><path d="m14 28h4v7h-4z" fill="#d4f2e8"/><path d="m18 28h4v7h-4z" fill="#a3c8be"/><path d="m8 16h3l2 3h15l4 4h26l5 9-23 6h-14l-2-13h-16z" fill="#ffc630"/><path d="m29 20 2.618-3.273a6.558 6.558 0 0 1 3.528-2.263 3.741 3.741 0 0 0 2.564-2.239l.63-1.574a4.673 4.673 0 0 1 2.25-2.446 3.737 3.737 0 0 1 4.315.7 3.738 3.738 0 0 0 2.643 1.095 4.33 4.33 0 0 1 3.713 2.1l1.1 1.842a5.489 5.489 0 0 0 1.659 1.739 5.481 5.481 0 0 1 2.365 3.658l.615 3.661h-25z" fill="#d0bdb6"/><path d="m23.75 46a8.005 8.005 0 0 0 -15.5 0 8.239 8.239 0 0 0 -.25 2 8 8 0 0 0 16 0 8.239 8.239 0 0 0 -.25-2zm-7.75 6a3.994 3.994 0 1 1 4-4 4 4 0 0 1 -4 4z" fill="#606060"/><path d="m47 40a8 8 0 1 0 8 8 8 8 0 0 0 -8-8zm0 12a4 4 0 1 1 4-4 4 4 0 0 1 -4 4z" fill="#606060"/><path d="m16 43a5 5 0 1 0 5 5 5.006 5.006 0 0 0 -5-5zm0 8a3 3 0 1 1 3-3 3 3 0 0 1 -3 3z"/><path d="m63.874 31.515-5-9a1 1 0 0 0 -.874-.515h-.153l-.471-2.823a6.5 6.5 0 0 0 -2.8-4.325 4.505 4.505 0 0 1 -1.356-1.423l-1.1-1.841a5.357 5.357 0 0 0 -4.572-2.588 2.756 2.756 0 0 1 -1.936-.8 4.727 4.727 0 0 0 -5.468-.887 5.662 5.662 0 0 0 -2.733 2.968l-.629 1.575a2.75 2.75 0 0 1 -1.879 1.64 7.6 7.6 0 0 0 -4.066 2.604l-1.92 2.4-.21-.21a1 1 0 0 0 -.707-.29h-14.465l-1.7-2.555a1 1 0 0 0 -.835-.445h-3a1 1 0 0 0 -1 1v9a1 1 0 0 0 1 1h2v3h-7a1 1 0 0 0 -1 1v2a1 1 0 0 0 -1 1v6a1 1 0 0 0 -1 1v6a1 1 0 0 0 1 1h6.059a9 9 0 1 0 17.882 0h1.059v2a1 1 0 0 0 1 1h9a1 1 0 0 0 1-1v-2h1.059a9 9 0 1 0 12.311-7.339l2.37-3.951 10.512-2.742a1 1 0 0 0 .622-1.453zm-31.474-14.162a5.575 5.575 0 0 1 2.989-1.919 4.752 4.752 0 0 0 3.25-2.834l.63-1.576a3.662 3.662 0 0 1 1.769-1.924 2.73 2.73 0 0 1 3.16.512 4.7 4.7 0 0 0 3.35 1.388 3.346 3.346 0 0 1 2.852 1.617l1.1 1.841a6.543 6.543 0 0 0 1.961 2.058 4.493 4.493 0 0 1 1.939 2.989l.42 2.495h-23.406l-2.074-2.074zm16.723 17.234-1.923-10.587h4.967l1.7 9.35zm-14.401 4.413a1.993 1.993 0 0 1 -1.722 1h-2a1.993 1.993 0 0 1 -1.722-1zm.84-2-2.362-13h4.967l2.333 12.836-.628.164zm6.878-.67-2.24-12.33h4.967l2.017 11.093zm-33.44-19.33h1.465l1.7 2.555a1 1 0 0 0 .835.445h14.586l3.486 3.486 2.457 13.514h-6.671l-1.87-12.152a1 1 0 0 0 -.988-.848h-15zm14.142 9 1.231 8h-1.373v-6a1 1 0 0 0 -1-1h-8a1 1 0 0 0 -1 1v6h-1v-8zm-4.142 8v-5h2v5zm-4 0v-5h2v5zm-5-2h-3v-1h3zm-6-1h1v1h-1zm-1 3h7v.713l-2.68 4.287h-4.32zm-1 7h4.07l-.918 1.47a1 1 0 0 0 -.152.53v2h-3zm14 14a7 7 0 1 1 7-7 7.008 7.008 0 0 1 -7 7zm19-7h-7v-3h7zm19 0a7 7 0 1 1 -7-7 7.008 7.008 0 0 1 7 7zm-5.635-8.885a8.9 8.9 0 0 0 -1.365-.115 9.008 9.008 0 0 0 -8.475 6h-1.525v-1a1 1 0 0 0 -1-1h-9a1 1 0 0 0 -1 1v1h-1.525a8.985 8.985 0 0 0 -16.95 0h-.525v-1.713l4.554-7.287h13.127l.331 2.152a1 1 0 0 0 .988.848h1.142a4 4 0 0 0 3.858 3h2a4 4 0 0 0 3.858-3h3.142a1.018 1.018 0 0 0 .252-.032l9.723-2.537zm7.441-6.271-1.606-8.844h3.214l4.086 7.358z"/><path d="m42 48a5 5 0 1 0 5-5 5.006 5.006 0 0 0 -5 5zm8 0a3 3 0 1 1 -3-3 3 3 0 0 1 3 3z"/><circle cx="47" cy="14" r="1"/><circle cx="48.965" cy="17.057" r="1"/><circle cx="51.965" cy="18.057" r="1"/></g></svg>