<svg id="Layer_1" enable-background="new 0 0 512 512" height="512" viewBox="0 0 512 512" width="512" xmlns="http://www.w3.org/2000/svg"><g><g><g><path d="m392.415 29.924h-122.073c-11.997 0-22.944 6.828-28.2 17.59l-13.363 27.361c-5.256 10.762-16.203 17.59-28.2 17.59h-97.535c-17.326 0-31.371 14.016-31.371 31.306v349.423c0 17.29 14.045 31.306 31.371 31.306h305.913c17.326 0 31.371-14.016 31.371-31.306v-362.68c0-11.904-2.466-23.68-7.242-34.588l-11.924-27.231c-4.993-11.402-16.279-18.771-28.747-18.771z" fill="#aad667"/><path d="m433.085 75.926-11.924-27.232c-4.993-11.402-16.278-18.771-28.746-18.771h-40c12.469 0 23.754 7.369 28.746 18.771l11.924 27.232c4.777 10.908 7.242 22.684 7.242 34.588v362.68c0 17.29-14.045 31.306-31.371 31.306h40c17.326 0 31.371-14.016 31.371-31.306v-362.68c.001-11.904-2.465-23.68-7.242-34.588z" fill="#99c94f"/><path d="m369.807 111.91h-76.992c-13.352 0-24.176-10.824-24.176-24.176 0-13.352 10.824-24.176 24.176-24.176h76.992c13.352 0 24.176 10.824 24.176 24.176-.001 13.353-10.824 24.176-24.176 24.176z" fill="#fff"/><path d="m174.136 92.465h-60.625c-7.982 0-14.453-6.471-14.453-14.453 0-7.982 6.471-14.453 14.453-14.453h60.625c7.982 0 14.453 6.471 14.453 14.453 0 7.982-6.471 14.453-14.453 14.453z" fill="#82b339"/><path d="m188.737 63.559h-92.285c-9.314 0-16.864-7.55-16.864-16.864v-22.331c0-9.314 7.55-16.864 16.864-16.864h92.286c9.314 0 16.864 7.55 16.864 16.864v22.331c-.001 9.314-7.551 16.864-16.865 16.864z" fill="#fc435f"/><path d="m188.737 7.5h-40c9.314 0 16.864 7.55 16.864 16.864v22.331c0 9.314-7.55 16.864-16.864 16.864h40c9.314 0 16.864-7.55 16.864-16.864v-22.331c0-9.314-7.55-16.864-16.864-16.864z" fill="#eb2f4b"/><path d="m71.672 173.573h368.655v242.289h-368.655z" fill="#ffdeb0"/><path d="m400.328 173.573h40v242.289h-40z" fill="#fcd59f"/><path d="m142.419 173.573h227.162v242.289h-227.162z" fill="#fff1ec"/><g fill="#aad667"><path d="m278.042 262.514c-.208 23.602-22.419 42.542-22.419 42.542s-21.874-19.327-21.665-42.929c.208-23.602 22.419-42.542 22.419-42.542s21.873 19.326 21.665 42.929z"/><g><path d="m302.051 355.481c-16.871 16.543-45.997 14.262-45.997 14.262s-1.772-29.101 15.099-45.644 45.997-14.262 45.997-14.262 1.772 29.102-15.099 45.644z"/><path d="m209.949 355.481c16.871 16.543 45.997 14.262 45.997 14.262s1.772-29.101-15.099-45.644-45.997-14.262-45.997-14.262-1.772 29.102 15.099 45.644z"/></g></g></g></g><g fill="#060606"><path d="m439.956 72.917-11.925-27.232c-6.188-14.131-20.169-23.262-35.616-23.262h-122.073c-14.757 0-28.471 8.556-34.938 21.798l-13.364 27.362c-3.971 8.129-12.395 13.382-21.461 13.382h-5.625c1.595-4.896 1.509-9.778-.259-14.645 10.564-2.665 18.407-12.245 18.407-23.624v-22.332c0-13.434-10.93-24.364-24.365-24.364h-92.285c-13.434 0-24.364 10.93-24.364 24.364v22.331c0 12.189 8.997 22.315 20.699 24.088-1.756 5.175-1.63 10.327.377 15.456-16.664 4.375-28.992 19.541-28.992 37.532v82.618c0 9.697 15 9.697 15 0v-25.315h55.747v227.289h-55.747v-162.097c0-9.697-15-9.697-15 0v226.928c0 21.398 17.438 38.806 38.872 38.806h305.912c21.435 0 38.872-17.408 38.872-38.806v-362.68c0-13.018-2.648-25.667-7.872-37.597zm-333.397 5.095c0-3.834 3.119-6.953 6.952-6.953h60.625c8.988 0 8.988 13.906 0 13.906h-60.625c-3.833 0-6.952-3.119-6.952-6.953zm-19.471-31.317v-22.331c0-5.164 4.201-9.364 9.364-9.364h92.285c5.163 0 9.364 4.201 9.364 9.364v22.331c0 5.163-4.201 9.364-9.364 9.364h-92.285c-5.163 0-9.364-4.201-9.364-9.364zm-7.916 77.076c0-13.126 10.709-23.806 23.872-23.806h97.535c14.757 0 28.471-8.556 34.939-21.798l13.363-27.361c3.97-8.129 12.394-13.381 21.46-13.381h122.073c9.49 0 18.077 5.605 21.876 14.279l11.925 27.231c4.388 10.021 6.612 20.646 6.612 31.58v55.559h-353.655zm70.747 57.302h212.162v127.957c0 4.142 3.357 7.5 7.5 7.5s7.5-3.358 7.5-7.5v-127.957h55.747v227.289h-55.747v-59.377c0-4.142-3.357-7.5-7.5-7.5s-7.5 3.358-7.5 7.5v59.377h-212.162zm259.037 315.927h-305.912c-13.163 0-23.872-10.679-23.872-23.806v-49.832h353.656v49.832c0 13.127-10.709 23.806-23.872 23.806z"/><path d="m292.815 119.41h76.991c40.755 0 40.821-63.351 0-63.351h-76.991c-40.755 0-40.821 63.351 0 63.351zm0-48.351h76.991c20.861 0 21.816 33.351 0 33.351h-76.991c-20.86 0-21.815-33.351 0-33.351z"/><path d="m317.735 302.361c-18.982-1.501-41.401 4.288-54.235 18.949v-13.366c6.636-6.594 21.854-24.022 22.042-45.364.235-26.716-23.201-47.734-24.199-48.615-2.799-2.473-6.991-2.51-9.832-.087-1.014.864-24.817 21.467-25.053 48.183-.196 22.273 16.051 40.574 22.042 46.56v12.689c-12.863-14.694-35.236-20.424-54.235-18.948-3.729.292-6.674 3.288-6.901 7.021-.081 1.328-1.76 32.731 17.335 51.454 23.73 23.269 78.873 23.269 102.604 0 19.095-18.723 17.416-50.126 17.335-51.454-.229-3.735-3.173-6.73-6.903-7.022zm-61.453-72.071c5.711 6.583 14.378 18.792 14.26 32.158-.117 13.295-8.904 25.291-14.728 31.793-.051.001-.102.005-.152.008-5.708-6.632-14.321-18.846-14.204-32.056.117-13.368 9.002-25.425 14.824-31.903zm-41.082 119.836c-9.539-9.354-12.07-24.069-12.702-32.753 8.736.497 23.613 2.782 33.099 12.082 9.548 9.362 12.075 24.095 12.703 32.776-8.718-.473-23.542-2.733-33.1-12.105zm81.6 0c-9.551 9.365-24.36 11.629-33.076 12.104.653-8.705 3.205-23.486 12.68-32.775 9.56-9.374 24.388-11.633 33.101-12.106-.631 8.687-3.159 23.417-12.705 32.777z"/><path d="m399 456.51h-286c-9.697 0-9.697 15 0 15h286c9.697 0 9.697-15 0-15z"/></g></g></svg>