<?xml version="1.0" encoding="iso-8859-1"?>
<!-- Generator: Adobe Illustrator 19.0.0, SVG Export Plug-In . SVG Version: 6.00 Build 0)  -->
<svg version="1.1" id="Capa_1" xmlns="http://www.w3.org/2000/svg" xmlns:xlink="http://www.w3.org/1999/xlink" x="0px" y="0px"
	 viewBox="0 0 512 512" style="enable-background:new 0 0 512 512;" xml:space="preserve">
<path style="fill:#898890;" d="M504.372,127.176c0,14.299-8.197,27.968-22.069,34.274l-197.639,89.549
	c-18.917,8.594-41.21,0.224-49.804-18.693c-1.241-2.726-2.126-5.533-2.675-8.35c-0.468-2.39-0.702-4.8-0.702-7.19
	c0-14.299,8.197-27.968,22.069-34.274l197.639-89.549c9.448-4.292,19.74-4.353,28.751-0.976c9.021,3.377,16.75,10.201,21.052,19.669
	C503.284,116.681,504.372,121.969,504.372,127.176z"/>
<path style="fill:#ACABB1;" d="M480.645,99.157c0,14.299-8.197,27.968-22.069,34.274L260.937,222.98
	c-9.448,4.292-19.74,4.353-28.751,0.976c-0.468-2.39-0.702-4.8-0.702-7.19c0-14.299,8.197-27.968,22.069-34.274l197.639-89.549
	c9.448-4.292,19.74-4.353,28.751-0.976C480.411,94.357,480.645,96.767,480.645,99.157z"/>
<path style="fill:#663A00;" d="M346.041,154.178L44.209,290.409l-14.371,6.489c-8.329-6.204-13.709-16.12-13.709-27.287
	c0-12.459,6.702-23.331,16.679-29.26c3.112-1.841,5.044-5.126,5.034-8.746v-0.112c0-18.815,5.461-36.338,14.869-51.106
	c2.563-4.007,1.871-9.224-1.556-12.53c-8.207-7.912-13.313-19.018-13.313-31.304c0-24.032,19.476-43.519,43.498-43.519
	c7.821,0,15.154,2.065,21.49,5.675c4.19,2.39,9.489,1.261,12.509-2.492c17.442-21.663,44.18-35.535,74.161-35.535
	c30.145,0,57.004,14.015,74.436,35.87c3.01,3.773,8.268,4.719,12.499,2.39c7.15-3.916,15.398-6.072,24.165-5.899
	c13.15,0.275,25.131,5.919,33.725,14.869c7.526,7.811,12.448,18.134,13.323,29.575C348.096,143.296,347.506,148.92,346.041,154.178z
	"/>
<path style="fill:#884D00;" d="M346.041,154.178L44.209,290.409c-0.407-2.095-0.62-4.261-0.62-6.478
	c0-12.459,6.702-23.341,16.679-29.26c3.112-1.851,5.044-5.136,5.034-8.746v-0.122c0-18.805,5.461-36.338,14.869-51.095
	c2.563-4.007,1.871-9.235-1.556-12.53c-8.207-7.912-13.313-19.018-13.313-31.304c0-24.042,19.476-43.519,43.498-43.519
	c7.821,0,15.154,2.065,21.49,5.675c4.19,2.39,9.489,1.261,12.509-2.492c17.442-21.673,39.135-20.971,58.652-20.971
	c20.32,0,57.004,14.015,74.436,35.881c3.01,3.773,8.268,4.709,12.499,2.39c7.15-3.926,30.907-20.656,39.674-20.473
	c2.126,0.041,4.211,0.224,6.265,0.549c7.526,7.811,12.448,18.134,13.323,29.575C348.096,143.296,347.506,148.92,346.041,154.178z"/>
<g>
	<path style="fill:#663A00;" d="M42.134,376.195c0,2.593-0.509,5.055-1.424,7.312c-2.888,7.099-9.855,12.113-18.001,12.113
		c-10.73,0-19.425-8.696-19.425-19.425c0-8.136,5.004-15.103,12.103-17.991c2.258-0.926,4.729-1.434,7.323-1.434
		C33.438,356.77,42.134,365.465,42.134,376.195z"/>
	<path style="fill:#663A00;" d="M124.503,426.599c-2.746,5.98-8.187,10.638-14.971,12.092c-12.153,2.604-23.92-5.614-25.69-17.869
		c-0.102-0.712-0.753-1.231-1.475-1.149c-11.177,1.231-21.083-7.201-21.551-18.581c-0.336-8.167,4.658-15.703,12.113-18.723
		c0.681-0.275,1.373-0.519,2.095-0.712c10.821-2.98,21.571,3.692,24.073,14.116c0.173,0.712,0.895,1.159,1.607,1.007
		c0.203-0.041,0.417-0.081,0.62-0.122c12.052-2.115,23.524,6.285,24.988,18.601C126.791,419.235,126.1,423.141,124.503,426.599z"/>
</g>
<path style="fill:#ACABB1;" d="M383.56,161.43v75.514c0,14.716-3.082,28.67-8.604,41.159c-14.503,32.84-45.817,55.57-82.115,55.57
	H33.937c-24.175,0-32.606-34.233-11.553-46.905l13.13-5.929l312.99-141.244C364.175,130.177,383.56,142.249,383.56,161.43z"/>
<path style="fill:#C6C5CA;" d="M383.56,161.43v75.514c0,14.716-3.082,28.67-8.604,41.159
	c-15.672,13.771-35.759,22.039-57.665,22.039H58.386c-12.326,0-20.564-8.899-22.873-19.303l312.99-141.244
	C364.175,130.177,383.56,142.249,383.56,161.43z"/>
<path style="fill:#663A00;" d="M46.975,439.179c0,0.468-0.031,0.925-0.081,1.373c-0.681,6.051-5.817,10.76-12.052,10.76
	c-6.702,0-12.133-5.441-12.133-12.133c0-6.234,4.709-11.37,10.76-12.052c0.447-0.051,0.905-0.081,1.373-0.081
	C41.544,427.046,46.975,432.477,46.975,439.179z"/>
<g>
	<path style="fill:#884D00;" d="M42.134,376.195c0,2.593-0.509,5.055-1.424,7.312c-2.258,0.926-4.729,1.434-7.323,1.434
		c-10.73,0-19.425-8.696-19.425-19.425c0-2.593,0.509-5.055,1.424-7.312c2.258-0.926,4.729-1.434,7.323-1.434
		C33.438,356.77,42.134,365.465,42.134,376.195z"/>
	<path style="fill:#884D00;" d="M124.503,426.599c-1.353,0.61-2.797,1.088-4.292,1.414c-12.153,2.604-23.92-5.614-25.69-17.869
		c-0.102-0.712-0.753-1.231-1.475-1.149c-11.177,1.231-21.083-7.201-21.551-18.581c-0.112-2.807,0.397-5.543,1.434-8.045
		c0.681-0.275,1.373-0.519,2.095-0.712c10.821-2.98,21.571,3.692,24.073,14.116c0.173,0.712,0.895,1.159,1.607,1.007
		c0.203-0.041,0.417-0.081,0.62-0.122c12.052-2.115,23.524,6.285,24.988,18.601C126.791,419.235,126.1,423.141,124.503,426.599z"/>
	<path style="fill:#884D00;" d="M46.975,439.179c0,0.468-0.031,0.925-0.081,1.373c-0.447,0.051-0.905,0.081-1.373,0.081
		c-6.702,0-12.133-5.441-12.133-12.133c0-0.468,0.031-0.926,0.081-1.373c0.447-0.051,0.905-0.081,1.373-0.081
		C41.544,427.046,46.975,432.477,46.975,439.179z"/>
</g>
<g>
	<circle style="fill:#663A00;" cx="112.442" cy="164.34" r="7.625"/>
	<circle style="fill:#663A00;" cx="97.695" cy="209.1" r="7.625"/>
	<circle style="fill:#663A00;" cx="144.468" cy="204.859" r="7.625"/>
	<circle style="fill:#663A00;" cx="212.11" cy="143.949" r="7.625"/>
	<circle style="fill:#663A00;" cx="244.655" cy="159.205" r="7.625"/>
	<circle style="fill:#663A00;" cx="300.764" cy="136.321" r="7.625"/>
	<circle style="fill:#663A00;" cx="164.483" cy="143.949" r="7.625"/>
	<circle style="fill:#663A00;" cx="191.597" cy="113.52" r="7.625"/>
</g>
<path d="M448.049,85.997l-94.077,42.625c-8.515-36.64-50.356-54.696-82.926-35.363c-41.021-53.483-121.695-53.616-162.887-0.254
	c-30.29-18.643-70.632-1.377-77.121,34.355c-0.753,4.149,2.004,8.116,6.143,8.868s8.116-1.993,8.868-6.143
	c4.969-27.399,37.982-38.759,58.825-20.615c3.509,3.038,8.86,2.282,11.391-1.566c34.632-52.804,111.974-52.757,146.543,0.092
	c2.456,3.769,7.666,4.616,11.197,1.749c7.302-5.939,16.14-9.082,25.578-9.082c20.283,0,37.138,14.967,40.124,34.42l-50.935,23.082
	c-0.173,0.081-0.336,0.163-0.498,0.244l-0.02,0.01l-63.239,28.538c-3.834,1.729-5.543,6.255-3.814,10.089
	c1.784,3.945,6.392,5.477,10.089,3.814c134.983-61.058,124.54-56.903,128.725-56.903c7.658,0,15.916,6.682,15.916,17.473
	c0,18.132,0,62.594,0,75.514c0,49.122-37.274,89.102-83.091,89.102H33.937c-16.313,0-21.999-23.672-7.973-32.524l177.522-80.111
	c2.237-1.007,3.753-2.97,4.271-5.187c1.473-6.046-4.708-11.349-10.547-8.716L24.875,277.279
	c-4.046-13.542,3.242-27.515,15.896-32.331c3.122-1.19,5.116-4.282,4.892-7.628c-1.391-22.486,5.333-42.959,18.184-59.496
	c1.312-1.688,1.861-3.855,1.495-5.96c-1.09-6.479-8.091-5.254-15.133-17.483c-2.095-3.661-6.763-4.912-10.414-2.817
	c-3.651,2.095-4.912,6.763-2.807,10.414c2.736,4.75,6.234,9.062,10.323,12.713c-11.679,17.54-17.486,37.986-17.086,58.357
	c-18.353,10.054-26.847,32.606-18.51,52.519c-18.728,19.322-6.493,55.733,22.222,55.733h258.904
	c54.228,0,98.346-46.814,98.346-104.357v-25.843l94.268-42.715c16.13-7.323,26.544-23.503,26.544-41.21
	C512,94.466,477.976,72.371,448.049,85.997z M479.16,154.494l-87.973,39.867V161.43c0-11.116-5.299-20.941-13.384-26.86
	c77.882-34.389,77.717-37.376,88.919-37.376c16.49,0,30.023,13.401,30.023,29.982C496.744,138.923,489.839,149.642,479.16,154.494z"
	/>
<path d="M49.763,376.195c0-22.83-26.601-35.243-44.117-20.991c-3.268,2.659-3.761,7.463-1.102,10.731
	c2.659,3.268,7.464,3.762,10.731,1.102c7.614-6.195,19.233-0.815,19.233,9.158c0,11.076-13.974,16.029-20.96,7.43
	c-2.655-3.27-7.46-3.765-10.73-1.11c-3.27,2.656-3.766,7.46-1.11,10.73c5.164,6.356,12.82,10.001,21.003,10.001
	C37.628,403.247,49.763,391.112,49.763,376.195z"/>
<path d="M104.639,388.702c-8.873-18.547-34.644-20.87-46.563-3.859c-11.898,16.977-0.997,40.44,19.522,42.452
	c7.714,22.219,37.588,26.583,51.225,7.127C142.354,415.111,128.34,388.36,104.639,388.702z M116.329,425.667
	c-7.351,10.491-23.989,6.05-25.033-6.814c-0.371-4.515-4.579-7.719-9.034-6.868c-9.91,1.959-17.843-9.611-11.693-18.386
	c6.037-8.615,19.601-5.522,21.276,4.74c0.732,4.46,5.168,7.314,9.535,6.124C113.987,401.025,123.622,415.262,116.329,425.667z"/>
<path d="M34.843,419.415c-10.895,0-19.76,8.864-19.76,19.76c0,10.895,8.864,19.76,19.76,19.76s19.76-8.864,19.76-19.76
	C54.603,428.28,45.738,419.415,34.843,419.415z M34.843,443.68c-2.484,0-4.504-2.021-4.504-4.504c0-2.484,2.021-4.504,4.504-4.504
	s4.504,2.021,4.504,4.504C39.347,441.659,37.326,443.68,34.843,443.68z"/>
<g>
</g>
<g>
</g>
<g>
</g>
<g>
</g>
<g>
</g>
<g>
</g>
<g>
</g>
<g>
</g>
<g>
</g>
<g>
</g>
<g>
</g>
<g>
</g>
<g>
</g>
<g>
</g>
<g>
</g>
</svg>
