<svg id="Layer_5" enable-background="new 0 0 64 64" height="512" viewBox="0 0 64 64" width="512" xmlns="http://www.w3.org/2000/svg"><g><g><g><path d="m59.36 52.17c-.17.11-.36.21-.55.3l-4.73 2.19-4.75 2.19c-.22.1-.45.15-.69.15-.23 0-.44-.05-.64-.13-.36-.15-.66-.43-.82-.78-.12-.22-.18-.47-.18-.73v-.07c0-.23.05-.47.15-.69l1.68-3.62 2.34-5.04.36-.76c.89-1.94 2.84-3.18 4.97-3.18h.01c1.51 0 2.89.62 3.88 1.61s1.61 2.37 1.61 3.88c0 1.63-.72 3.14-1.92 4.17h-.01c-.22.19-.46.36-.71.51z" fill="#ffeaa7"/></g><g><path d="m48 56.87v1.13c0 2.21-1.79 4-4 4v-2c0-1.2.52-2.27 1.36-3 .44-.39.97-.68 1.55-.84.09-.03.18-.05.27-.07.16.35.46.63.82.78z" fill="#fcd770"/></g><g><path d="m43 53c1.92 0 3.52 1.36 3.91 3.16-.58.16-1.11.45-1.55.84h-.36c-2.21 0-4-1.79-4-4z" fill="#fcd770"/></g><g><path d="m51.17 45.94-2.34 5.04c-1.57-.09-2.83-1.38-2.83-2.98 0-1.66 1.34-3 3-3 .86 0 1.63.36 2.17.94z" fill="#fcd770"/></g><g><path d="m59.36 52.17c.4.51.64 1.14.64 1.83 0 1.66-1.34 3-3 3-1.43 0-2.62-1-2.92-2.34l4.73-2.19c.19-.09.38-.19.55-.3z" fill="#fcd770"/></g><g><path d="m18.26 54.42-12.71 7.27c-.36.2-.77.31-1.18.31-1.31 0-2.37-1.06-2.37-2.37v-.07c0-.41.11-.82.31-1.18l7.27-12.65c.28-.48.62-.93 1.02-1.33l.54-.54c1.19-1.19 2.81-1.86 4.5-1.86 1.09 0 2.11.27 3 .75.55.3 1.06.67 1.5 1.11s.81.95 1.11 1.5c.48.89.75 1.91.75 3 0 1.69-.67 3.31-1.86 4.5l-.54.54c-.4.4-.85.74-1.34 1.02z" fill="#ff826e"/></g><g><path d="m34 49 4 2c0 4-3 10-6 10s-6-6-6-10l4-2 2 2z" fill="#ff826e"/></g><g><path d="m38 51-4-2-2 2-2-2-4 2c0-3 2-6 6-6s6 3 6 6z" fill="#a0d468"/></g><g><path d="m36 41h4c0 2.21-1.79 4-4 4h-4c0-2.21 1.79-4 4-4z" fill="#b4dd7f"/></g><g><path d="m11 2h15c-2.21 0-4 4.03-4 9s1.79 9 4 9h-15c-2.48 0-4.74-1.01-6.36-2.64-1.63-1.62-2.64-3.88-2.64-6.36 0-4.97 4.03-9 9-9z" fill="#a0d468"/></g><g><ellipse cx="26" cy="11" fill="#b4dd7f" rx="4" ry="9"/></g><g><path d="m53 2c4.97 0 9 4.03 9 9 0 2.48-1.01 4.74-2.64 6.36-1.62 1.63-3.88 2.64-6.36 2.64h-15c2.21 0 4-4.03 4-9s-1.79-9-4-9z" fill="#fcd770"/></g><g><ellipse cx="38" cy="11" fill="#ffeaa7" rx="4" ry="9"/></g></g><g><path d="m37 20.814v15.186h19v3h2v-5h-19v-13h14c5.514 0 10-4.486 10-10s-4.486-10-10-10h-15c-2.851 0-5 4.299-5 10 0 5.012 1.662 8.937 4 9.814zm24-9.814c0 4.411-3.589 8-8 8h-11.936c1.191-1.794 1.936-4.651 1.936-8s-.745-6.206-1.936-8h11.936c4.411 0 8 3.589 8 8zm-23-8c1.224 0 3 3.116 3 8 0 3.645-.989 6.303-2 7.418v-3.418h-2v3.418c-1.011-1.115-2-3.774-2-7.418 0-4.884 1.776-8 3-8z"/><path d="m11 21h14v10h-11v8h2v-6h11v-12.186c2.338-.877 4-4.802 4-9.814 0-5.701-2.149-10-5-10h-15c-5.514 0-10 4.486-10 10s4.486 10 10 10zm18-10c0 3.645-.989 6.303-2 7.418v-3.418h-2v3.418c-1.011-1.115-2-3.774-2-7.418 0-4.884 1.776-8 3-8s3 3.116 3 8zm-18-8h11.936c-1.191 1.794-1.936 4.651-1.936 8s.745 6.206 1.936 8h-11.936c-4.411 0-8-3.589-8-8s3.589-8 8-8z"/><path d="m57 11h2c0-3.309-2.691-6-6-6v2c2.206 0 4 1.794 4 4z"/><path d="m11 17v-2c-2.206 0-4-1.794-4-4h-2c0 3.309 2.691 6 6 6z"/><path d="m41 41v-1h-5c-1.13 0-2.162.391-3 1.026v-3.026h-2v6.065c-3.941.473-6 3.719-6 6.935 0 4.243 3.203 11 7 11s7-6.757 7-11c0-1.873-.703-3.753-2.064-5.095 2.31-.44 4.064-2.469 4.064-4.905zm-9 5c2.594 0 4.12 1.478 4.712 3.238l-2.91-1.455-1.802 1.803-1.803-1.803-2.91 1.455c.593-1.76 2.119-3.238 4.713-3.238zm0 14c-1.993 0-4.696-4.684-4.972-8.396l2.775-1.388 2.197 2.198 2.197-2.197 2.775 1.388c-.276 3.711-2.979 8.395-4.972 8.395zm4-16h-2.829c.413-1.164 1.525-2 2.829-2h2.829c-.413 1.164-1.525 2-2.829 2z"/><path d="m31 20h2v16h-2z"/><path d="m26.274 44.962-.549-1.924-4.03 1.152c-.064-.092-.134-.18-.202-.269l3.213-3.213-1.414-1.414-3.213 3.213c-.089-.068-.177-.138-.269-.202l1.152-4.03-1.924-.549-1.048 3.667c-.74-.251-1.53-.393-2.354-.393-1.967 0-3.816.766-5.207 2.157l-.538.538c-.46.46-.856.979-1.179 1.54l-7.265 12.652c-.293.509-.447 1.09-.447 1.743 0 1.858 1.512 3.37 3.37 3.37.587 0 1.165-.153 1.673-.444l12.712-7.265c.568-.323 1.091-.723 1.555-1.187l.533-.533c1.391-1.39 2.157-3.24 2.157-5.207 0-.824-.142-1.614-.393-2.354zm-6.845 7.195-.533.533c-.338.338-.719.628-1.132.864l-12.714 7.265c-.206.119-.442.181-.68.181-.756 0-1.37-.614-1.37-1.436 0-.239.063-.476.182-.683l7.265-12.651c.235-.409.523-.786.858-1.121l.538-.538c.999-.999 2.381-1.571 3.793-1.571 2.958 0 5.364 2.406 5.364 5.364 0 1.412-.572 2.794-1.571 3.793z"/><circle cx="56" cy="46" r="1"/><path d="m63 47.488c0-3.578-2.91-6.488-6.488-6.488h-.008c-2.396 0-4.591 1.346-5.712 3.445-.551-.281-1.155-.445-1.792-.445-2.206 0-4 1.794-4 4 0 1.632.994 3.037 2.419 3.652l-.864 1.863c-.918-.933-2.182-1.515-3.555-1.515h-3v1c0 2.249 1.503 4.135 3.551 4.76-.345.682-.551 1.44-.551 2.24v3h1c2.757 0 5-2.243 5-5v-.039c.256-.035.508-.094.746-.204l3.803-1.755c.696 1.213 1.985 1.998 3.451 1.998 2.206 0 4-1.794 4-4 0-.537-.121-1.055-.331-1.544 1.448-1.216 2.331-3.027 2.331-4.968zm-16 .512c0-1.103.897-2 2-2 .331 0 .645.09.929.243l-1.669 3.596c-.739-.295-1.26-1.007-1.26-1.839zm-4.829 6h.829c1.128 0 2.135.648 2.644 1.611-.213.115-.415.245-.607.389h-.037c-1.304 0-2.416-.836-2.829-2zm2.829 6.829v-.829c0-1.206.736-2.275 1.812-2.743.059.057.125.105.188.156v.587c0 1.304-.836 2.416-2 2.829zm3.908-4.889c-.41.191-.909-.118-.908-.646 0-.094.02-.185.06-.27l4.373-9.425c.732-1.579 2.331-2.6 4.071-2.6h.008c2.474.001 4.488 2.015 4.488 4.489 0 1.161-.461 2.252-1.232 3.072-3.273-.77-4.768-1.823-4.768-2.56h-2c0 1.694 1.516 3.027 4.463 3.992zm8.092.06c-.667 0-1.258-.327-1.622-.842l3.554-1.64c.039.148.068.305.068.482 0 1.103-.897 2-2 2z"/><path d="m8 53.586h2v2.828h-2z" transform="matrix(.707 -.707 .707 .707 -36.255 22.473)"/><path d="m11 49.172h2v5.657h-2z" transform="matrix(.707 -.707 .707 .707 -33.255 23.716)"/><path d="m14 46.172h2v5.657h-2z" transform="matrix(.707 -.707 .707 .707 -30.255 24.958)"/></g></g></svg>