<svg id="Capa_1" enable-background="new 0 0 512 512" height="512" viewBox="0 0 512 512" width="512" xmlns="http://www.w3.org/2000/svg"><g><g><path d="m408.821 235.818c-1.953-1.953-1.953-5.118 0-7.071l.965-.964-28.012-28.012c-16.797 12.356-37.537 19.664-59.988 19.664-55.981 0-101.362-45.381-101.362-101.362 0-16.534 3.961-32.141 10.982-45.93-4.024-.228-8.074-.355-12.155-.355-116.946 0-211.75 94.804-211.75 211.75s94.804 211.75 211.75 211.75 211.749-94.803 211.749-211.75c0-9.25-.604-18.358-1.755-27.295z" fill="#6e61b6"/><path d="m381.775 199.773c-16.797 12.356-37.538 19.663-59.99 19.663-55.981 0-101.362-45.381-101.362-101.362 0-7.287.776-14.391 2.236-21.242-1.135-.02-2.27-.043-3.41-.043-102.975 0-186.75 83.776-186.75 186.75s83.775 186.75 186.75 186.75 186.751-83.776 186.751-186.751c0-26.866-5.719-52.416-15.98-75.52z" fill="#dcfcee"/><path d="m92 283.538c0-82.883 54.279-153.314 129.154-177.646.367-3.068.872-6.092 1.507-9.069-1.135-.021-2.272-.035-3.412-.035-102.975 0-186.75 83.776-186.75 186.75s83.775 186.75 186.75 186.75c10.124 0 20.059-.821 29.75-2.38-88.883-14.29-156.999-91.519-156.999-184.37z" fill="#c2fae3"/></g><path d="m321.785 219.435c-4.331 0-8.597-.273-12.785-.8v24.419l25 17.734 25-17.734v-30.669c-11.521 4.55-24.076 7.05-37.215 7.05z" fill="#fbd74c"/><path d="m325 219.379c-1.068.033-2.139.056-3.215.056-4.331 0-8.597-.273-12.785-.8v24.419l25 17.734 14.195-10.069-23.195-16.453z" fill="#fac600"/><g><path d="m181 224.586v35.468l25 17.734 25-17.734v-35.468l-25-17.734z" fill="#1e9efd"/></g><g><g><path d="m225.268 220.52-19.268-13.668-25 17.734v35.468l20 14.188v-36.508z" fill="#0182fc"/></g></g><g><g><path d="m432.202 206.781-29.461-29.461c-6.087 8.295-13.415 15.623-21.71 21.709l29.461 29.461z" fill="#b3dafe"/></g><g><path d="m498.14 294.428c-8.48 8.48-22.229 8.48-30.71 0l-58.61-58.61c-1.953-1.953-1.953-5.118 0-7.071l23.638-23.638c1.953-1.953 5.118-1.953 7.071 0l58.61 58.61c8.481 8.48 8.481 22.229.001 30.709z" fill="#1e9efd"/></g><g><path d="m492.93 294.428-58.61-58.61c-1.953-1.953-1.953-5.118 0-7.071l14.424-14.424-9.214-9.214c-1.953-1.953-5.119-1.953-7.071 0l-23.638 23.638c-1.953 1.953-1.953 5.118 0 7.071l58.61 58.61c7.662 7.662 19.613 8.377 28.105 2.193-.908-.66-1.787-1.375-2.606-2.193z" fill="#0182fc"/></g><g><g><circle cx="321.785" cy="118.073" fill="#1e9efd" r="101.362"/></g><path d="m246 118.073c0-51.649 38.63-94.274 88.573-100.561-4.189-.527-8.457-.801-12.788-.801-55.981 0-101.362 45.381-101.362 101.362s45.381 101.362 101.362 101.362c4.332 0 8.6-.273 12.788-.801-49.943-6.287-88.573-48.912-88.573-100.561z" fill="#0182fc"/><g><circle cx="321.785" cy="118.073" fill="#eaf6ff" r="74.114"/></g><g><path d="m281 118.073c0-35.135 24.585-64.617 57.45-72.202-5.361-1.237-10.933-1.913-16.664-1.913-40.866 0-74.114 33.248-74.114 74.114s33.248 74.114 74.114 74.114c5.731 0 11.304-.676 16.664-1.913-32.865-7.582-57.45-37.064-57.45-72.2z" fill="#d8ecfe"/></g><g><g><g><circle cx="301.334" cy="97.623" fill="#fe653b" r="20.451"/></g><g><path d="m297.099 97.623c0-8.413 5.083-15.633 12.343-18.773-2.487-1.076-5.226-1.678-8.107-1.678-11.295 0-20.451 9.156-20.451 20.451s9.156 20.451 20.451 20.451c2.882 0 5.621-.602 8.107-1.678-7.26-3.14-12.343-10.36-12.343-18.773z" fill="#ef4424"/></g><g><circle cx="342.236" cy="97.623" fill="#fe653b" r="20.451"/></g><g><path d="m338.099 97.623c0-8.393 5.061-15.597 12.294-18.749-2.5-1.089-5.256-1.702-8.157-1.702-11.295 0-20.451 9.156-20.451 20.451s9.156 20.451 20.451 20.451c2.901 0 5.657-.612 8.157-1.702-7.233-3.152-12.294-10.356-12.294-18.749z" fill="#ef4424"/></g><g><circle cx="301.334" cy="138.524" fill="#fe653b" r="20.451"/></g><g><path d="m297.099 138.524c0-8.413 5.083-15.633 12.343-18.773-2.487-1.076-5.226-1.678-8.107-1.678-11.295 0-20.451 9.156-20.451 20.451s9.156 20.451 20.451 20.451c2.882 0 5.621-.602 8.107-1.678-7.26-3.14-12.343-10.36-12.343-18.773z" fill="#ef4424"/></g><g><circle cx="342.236" cy="138.524" fill="#fe653b" r="20.451"/></g><g><path d="m338.099 138.524c0-8.393 5.061-15.597 12.294-18.749-2.5-1.089-5.256-1.702-8.157-1.702-11.295 0-20.451 9.156-20.451 20.451s9.156 20.451 20.451 20.451c2.901 0 5.657-.612 8.157-1.702-7.233-3.151-12.294-10.355-12.294-18.749z" fill="#ef4424"/></g></g></g></g></g><g><path d="m189.925 409.763h-48.42c-8.243 0-14.987-6.744-14.987-14.987 0-8.243 6.744-14.987 14.987-14.987h48.42c8.243 0 14.987 6.744 14.987 14.987 0 8.242-6.744 14.987-14.987 14.987z" fill="#fe8a56"/></g><g><path d="m160 394.776c0-8.243 6.744-14.987 14.987-14.987h-33.482c-8.243 0-14.987 6.744-14.987 14.987 0 8.243 6.744 14.987 14.987 14.987h33.482c-8.243 0-14.987-6.745-14.987-14.987z" fill="#fd6930"/></g><g><g><circle cx="110.56" cy="298.407" fill="#1ee6a6" r="31.871"/></g><g><path d="m104 298.407c0-13.104 7.911-24.356 19.215-29.253-3.88-1.681-8.158-2.618-12.656-2.618-17.602 0-31.871 14.269-31.871 31.871s14.269 31.871 31.871 31.871c4.498 0 8.775-.937 12.656-2.618-11.304-4.897-19.215-16.149-19.215-29.253z" fill="#0ed290"/></g></g><g><g><circle cx="276.372" cy="301.239" fill="#fe653b" r="20.451"/></g><g><circle cx="247.451" cy="330.161" fill="#fe653b" r="20.451"/></g></g><g><circle cx="142.549" cy="177.239" fill="#fe653b" r="20.451"/></g><g><path d="m139.099 177.239c0-8.258 4.905-15.355 11.951-18.584-2.591-1.187-5.463-1.867-8.5-1.867-11.295 0-20.451 9.156-20.451 20.451s9.156 20.451 20.451 20.451c3.037 0 5.909-.68 8.5-1.867-7.047-3.229-11.951-10.326-11.951-18.584z" fill="#ef4424"/></g><g><path d="m238.5 260.054v-35.468c0-2.431-1.178-4.711-3.16-6.117l-25-17.734c-2.6-1.844-6.08-1.844-8.68 0l-25 17.734c-1.982 1.406-3.16 3.687-3.16 6.117v35.468c0 2.431 1.178 4.711 3.16 6.117l25 17.734c1.3.922 2.82 1.383 4.34 1.383s3.04-.461 4.34-1.383l25-17.734c1.982-1.406 3.16-3.686 3.16-6.117zm-15-3.875-17.5 12.414-17.5-12.414v-27.718l17.5-12.414 17.5 12.414z"/><path d="m503.443 258.416-14.055-14.055c-2.929-2.929-7.678-2.929-10.606 0-2.93 2.929-2.93 7.677-.001 10.606l14.056 14.055c2.685 2.685 4.163 6.254 4.163 10.051s-1.479 7.367-4.163 10.052c-2.686 2.685-6.255 4.163-10.052 4.163s-7.366-1.479-10.051-4.163l-56.843-56.842 20.103-20.103 18.038 18.039c2.929 2.929 7.677 2.93 10.607 0 2.929-2.929 2.929-7.678 0-10.606l-19.807-19.807c-2.361-2.36-5.5-3.66-8.839-3.66-1.152 0-2.277.165-3.357.465l-19.458-19.458c11.044-17.027 17.467-37.315 17.467-59.078 0-60.026-48.835-108.862-108.861-108.862-40.535 0-75.961 22.271-94.698 55.217-2.605-.091-5.217-.14-7.837-.14-58.563 0-113.622 22.806-155.033 64.217-41.41 41.41-64.216 96.468-64.216 155.032s22.806 113.622 64.217 155.033 96.47 64.217 155.033 64.217 113.622-22.806 155.033-64.217 64.217-96.469 64.217-155.033c0-2.534-.057-5.06-.146-7.579l23.772 23.772c5.518 5.518 12.854 8.557 20.658 8.557 7.803 0 15.14-3.039 20.658-8.557s8.557-12.854 8.557-20.658-3.038-15.141-8.556-20.658zm-82.555-52.343-11.103 11.103-16.809-16.809c3.96-3.431 7.672-7.142 11.102-11.103zm-99.103-181.862c51.755 0 93.861 42.106 93.861 93.862s-42.106 93.862-93.861 93.862c-51.756 0-93.862-42.106-93.862-93.862 0-51.755 42.106-93.862 93.862-93.862zm-5.285 202.594c1.752.084 3.513.13 5.285.13 10.298 0 20.266-1.438 29.715-4.122v16.366l-17.5 12.414-17.5-12.414zm107 56.734c0 112.624-91.626 204.25-204.25 204.25s-204.25-91.626-204.25-204.25 91.626-204.25 204.25-204.25c.273 0 .544.009.816.01-1.25 3.268-2.347 6.611-3.282 10.021-105.976 1.327-191.784 87.933-191.784 194.219 0 107.11 87.141 194.25 194.25 194.25 43.835 0 86.85-15.093 121.119-42.498 3.234-2.587 3.76-7.307 1.173-10.542-2.587-3.234-7.306-3.76-10.542-1.173-32.078 25.653-70.721 39.212-111.75 39.212-98.839 0-179.25-80.411-179.25-179.25 0-97.009 77.463-176.257 173.782-179.159-.566 4.486-.859 9.056-.859 13.694 0 53.096 38.211 97.428 88.577 106.959v18.022c0 2.431 1.178 4.711 3.16 6.117l25 17.734c1.3.922 2.82 1.383 4.34 1.383s3.04-.461 4.34-1.383l25-17.734c1.982-1.406 3.16-3.687 3.16-6.117v-25.731c5-2.262 9.798-4.894 14.364-7.856l2.87 2.87c9.49 21.838 14.767 45.913 14.767 71.201 0 42.77-15.381 84.214-43.311 116.7-2.7 3.141-2.343 7.876.798 10.577 3.142 2.7 7.876 2.344 10.577-.797 30.267-35.205 46.936-80.123 46.936-126.479 0-12.202-1.132-24.144-3.295-35.729l11.904 11.904c.912 7.818 1.39 15.766 1.39 23.825z"/><path d="m321.785 199.688c45.002 0 81.614-36.612 81.614-81.614 0-13.686-3.478-27.243-10.058-39.207-1.995-3.629-6.554-4.953-10.186-2.958-3.63 1.996-4.953 6.557-2.957 10.186 5.364 9.755 8.2 20.813 8.2 31.979 0 36.731-29.883 66.614-66.614 66.614s-66.614-29.883-66.614-66.614 29.883-66.614 66.614-66.614c13.306 0 26.157 3.929 37.167 11.361 3.43 2.317 8.093 1.413 10.412-2.019 2.318-3.433 1.414-8.095-2.02-10.413-13.497-9.113-29.252-13.93-45.56-13.93-45.002 0-81.614 36.612-81.614 81.614.002 45.003 36.614 81.615 81.616 81.615z"/><path d="m370.187 97.623c0-15.412-12.539-27.951-27.951-27.951-8.068 0-15.344 3.44-20.45 8.926-5.107-5.485-12.383-8.926-20.451-8.926-15.412 0-27.95 12.539-27.95 27.951 0 8.068 3.44 15.344 8.925 20.451-5.485 5.107-8.925 12.383-8.925 20.451 0 15.412 12.538 27.951 27.95 27.951 8.068 0 15.344-3.44 20.451-8.926 5.106 5.485 12.383 8.926 20.45 8.926 15.412 0 27.951-12.539 27.951-27.951 0-8.068-3.44-15.344-8.926-20.451 5.485-5.107 8.926-12.383 8.926-20.451zm-81.803 0c0-7.141 5.81-12.951 12.95-12.951 7.142 0 12.951 5.81 12.951 12.951s-5.81 12.951-12.951 12.951c-7.141-.001-12.95-5.81-12.95-12.951zm12.95 53.852c-7.141 0-12.95-5.81-12.95-12.951s5.81-12.951 12.95-12.951c7.142 0 12.951 5.81 12.951 12.951s-5.809 12.951-12.951 12.951zm53.853-12.951c0 7.141-5.81 12.951-12.951 12.951s-12.95-5.81-12.95-12.951 5.81-12.951 12.95-12.951c7.141 0 12.951 5.81 12.951 12.951zm-25.902-40.901c0-7.141 5.81-12.951 12.95-12.951 7.142 0 12.951 5.81 12.951 12.951s-5.81 12.951-12.951 12.951c-7.14-.001-12.95-5.81-12.95-12.951z"/><path d="m189.925 372.289h-48.42c-12.399 0-22.487 10.087-22.487 22.487s10.088 22.487 22.487 22.487h48.42c12.399 0 22.487-10.088 22.487-22.487s-10.088-22.487-22.487-22.487zm0 29.974h-48.42c-4.129 0-7.487-3.359-7.487-7.487s3.358-7.487 7.487-7.487h48.42c4.129 0 7.487 3.358 7.487 7.487s-3.358 7.487-7.487 7.487z"/><path d="m127.285 344.197c1.39 2.406 3.91 3.751 6.502 3.751 1.272 0 2.563-.324 3.743-1.006 3.587-2.071 4.816-6.658 2.745-10.245l-4.611-7.986c1.237-1.027 2.405-2.134 3.508-3.302l7.856 4.536c1.182.682 2.471 1.006 3.743 1.006 2.592 0 5.113-1.346 6.502-3.751 2.071-3.587.842-8.174-2.745-10.245l-7.308-4.219c.635-1.62 1.168-3.29 1.586-5.006h8.194c4.143 0 7.5-3.358 7.5-7.5s-3.357-7.5-7.5-7.5h-7.484c-.279-1.919-.698-3.793-1.243-5.613l6.256-3.612c3.587-2.071 4.816-6.658 2.745-10.245-2.072-3.588-6.659-4.817-10.245-2.745l-5.744 3.317c-1.29-1.609-2.697-3.12-4.219-4.509l3.211-5.561c2.071-3.587.842-8.174-2.745-10.245-3.59-2.072-8.175-.842-10.245 2.745l-3.025 5.239c-1.996-.743-4.068-1.325-6.201-1.738v-5.973c0-4.142-3.357-7.5-7.5-7.5s-7.5 3.358-7.5 7.5v5.973c-2.132.413-4.204.994-6.2 1.738l-3.025-5.239c-2.072-3.587-6.659-4.816-10.245-2.745-3.587 2.071-4.816 6.658-2.745 10.245l3.21 5.561c-1.522 1.388-2.929 2.9-4.219 4.509l-5.744-3.316c-3.59-2.072-8.175-.842-10.245 2.745-2.071 3.587-.842 8.174 2.745 10.245l6.256 3.612c-.546 1.82-.965 3.694-1.243 5.613h-7.486c-4.143 0-7.5 3.358-7.5 7.5s3.357 7.5 7.5 7.5h8.194c.418 1.716.951 3.386 1.586 5.006l-7.308 4.219c-3.587 2.071-4.816 6.658-2.745 10.245 1.39 2.406 3.91 3.751 6.502 3.751 1.272 0 2.563-.324 3.743-1.006l7.855-4.535c1.103 1.168 2.271 2.275 3.508 3.302l-4.611 7.986c-2.071 3.587-.842 8.174 2.745 10.245 1.182.682 2.471 1.006 3.743 1.006 2.592 0 5.113-1.345 6.502-3.751l4.779-8.277c1.448.462 2.932.84 4.446 1.133v9.616c0 4.142 3.357 7.5 7.5 7.5s7.5-3.358 7.5-7.5v-9.616c1.515-.293 2.999-.671 4.447-1.133zm-16.725-21.419c-13.438 0-24.37-10.933-24.37-24.371s10.933-24.371 24.37-24.371c13.438 0 24.371 10.933 24.371 24.371s-10.933 24.371-24.371 24.371z"/><ellipse cx="116.525" cy="284.891" rx="7.5" ry="7.5" transform="matrix(.383 -.924 .924 .383 -191.272 283.523)"/><path d="m119.081 300.397c-4.142 0-7.5 3.358-7.5 7.5s3.358 7.5 7.5 7.5 7.5-3.358 7.5-7.5-3.358-7.5-7.5-7.5z"/><circle cx="96.926" cy="300.229" r="7.5"/><path d="m247.451 358.098c7.156 0 14.314-2.725 19.763-8.173 5.28-5.279 8.188-12.298 8.188-19.765 0-.334-.027-.663-.039-.995.336.012.672.025 1.01.025 7.466 0 14.485-2.908 19.765-8.187 10.897-10.898 10.897-28.63 0-39.528-10.897-10.896-28.628-10.899-39.529 0-5.706 5.706-8.419 13.286-8.149 20.778-7.489-.271-15.066 2.438-20.771 8.143-5.28 5.28-8.188 12.299-8.188 19.765s2.907 14.485 8.187 19.764c5.449 5.45 12.605 8.174 19.763 8.173zm19.763-66.016c5.051-5.05 13.269-5.049 18.315 0 5.05 5.049 5.05 13.266 0 18.315-2.445 2.446-5.698 3.793-9.157 3.793s-6.711-1.347-9.158-3.794h.001c-5.05-5.049-5.05-13.265-.001-18.314zm-28.92 28.921c2.524-2.524 5.841-3.787 9.156-3.787 3.313 0 6.627 1.26 9.151 3.78l.006.006h.001c2.446 2.446 3.793 5.699 3.793 9.158s-1.347 6.711-3.794 9.158c-5.049 5.05-13.265 5.049-18.313 0-.001 0-.001 0-.001 0-2.446-2.446-3.793-5.698-3.793-9.157s1.347-6.712 3.794-9.158z"/><path d="m378.288 306.289c4.143 0 7.5-3.358 7.5-7.5s-3.357-7.5-7.5-7.5c-19.175 0-34.774 15.6-34.774 34.774 0 10.903-8.87 19.774-19.773 19.774h-6.612c-19.175 0-34.774 15.6-34.774 34.774 0 10.903-8.87 19.774-19.773 19.774h-3.306c-19.175 0-34.774 15.6-34.774 34.774 0 4.142 3.357 7.5 7.5 7.5s7.5-3.358 7.5-7.5c0-10.904 8.871-19.774 19.774-19.774h3.306c19.174 0 34.773-15.6 34.773-34.774 0-10.903 8.871-19.774 19.774-19.774h6.612c19.174 0 34.773-15.6 34.773-34.774 0-10.904 8.871-19.774 19.774-19.774z"/><path d="m142.549 205.19c15.412 0 27.951-12.539 27.951-27.951s-12.539-27.951-27.951-27.951-27.95 12.539-27.95 27.951 12.538 27.951 27.95 27.951zm0-40.901c7.142 0 12.951 5.81 12.951 12.951s-5.81 12.951-12.951 12.951-12.95-5.81-12.95-12.951 5.809-12.951 12.95-12.951z"/></g></g></svg>