<svg viewBox="0 -22 512.00099 512" xmlns="http://www.w3.org/2000/svg"><path d="m336.789062 88.289062c0 44.617188-36.171874 80.789063-80.789062 80.789063s-80.789062-36.171875-80.789062-80.789063c0-44.617187 36.171874-80.789062 80.789062-80.789062s80.789062 36.171875 80.789062 80.789062zm0 0" fill="#91dc5a"/><path d="m273.269531 132.925781-36.109375-44.773437 19.292969-15.558594 18.398437 22.816406 42.078126-44.003906 17.914062 17.125zm0 0" fill="#4cba68"/><path d="m243.269531 132.925781-36.109375-44.773437 19.289063-15.558594 18.402343 22.816406 42.078126-44.003906 17.910156 17.125zm0 0" fill="#e0e0e2"/><path d="m156.84375 461.3125h-137.148438l-11.859374-270.242188h160.867187zm0 0" fill="#d1e7f8"/><path d="m7.835938 191.070312 11.859374 270.242188h30l-11.855468-270.242188zm0 0" fill="#9bc9ff"/><path d="m324.574219 461.3125h-137.148438l-11.859375-270.242188h160.867188zm0 0" fill="#d1e7f8"/><path d="m175.566406 191.070312 11.859375 270.242188h30l-11.855469-270.242188zm0 0" fill="#9bc9ff"/><path d="m312.167969 288.105469c-18.734375 0-18.78125-6.007813-37.511719-6.007813-18.734375 0-18.734375 6-37.46875 6-18.730469 0-18.730469-6-37.464844-6h-.128906c-10.109375 0-14.777344 1.75-19.875 3.359375l7.71875 175.855469h137.148438l7.75-176.660156c-5.214844 1.636718-9.863282 3.453125-20.167969 3.453125zm0 0" fill="#57a4ff"/><path d="m144.445312 288.105469c-18.730468 0-18.777343-6.007813-37.511718-6.007813s-18.734375 6-37.464844 6c-18.734375 0-18.734375-6-37.464844-6h-.132812c-10.105469 0-14.773438 1.75-19.871094 3.359375l7.714844 175.855469h137.152344l7.75-176.660156c-5.214844 1.636718-9.863282 3.453125-20.171876 3.453125zm0 0" fill="#57a4ff"/><path d="m492.304688 461.3125h-137.148438l-11.859375-270.242188h160.867187zm0 0" fill="#d1e7f8"/><path d="m343.296875 191.070312 11.859375 270.242188h30l-11.855469-270.242188zm0 0" fill="#9bc9ff"/><path d="m479.886719 288.105469c-18.734375 0-18.78125-6.007813-37.511719-6.007813-18.734375 0-18.734375 6-37.46875 6-18.730469 0-18.730469-6-37.464844-6h-.128906c-10.109375 0-14.777344 1.75-19.875 3.359375l7.714844 175.855469h137.152344l7.75-176.660156c-5.214844 1.636718-9.863282 3.453125-20.167969 3.453125zm0 0" fill="#57a4ff"/><path d="m205.214844 88.289062c0-39.492187 28.335937-72.367187 65.785156-79.398437-4.859375-.910156-9.875-1.390625-15-1.390625-44.617188 0-80.789062 36.171875-80.789062 80.789062 0 44.621094 36.171874 80.789063 80.789062 80.789063 5.125 0 10.140625-.476563 15-1.390625-37.449219-7.03125-65.785156-39.90625-65.785156-79.398438zm0 0" fill="#4cba68"/><g fill="#006df0"><path d="m332.21875 287.375.117188-2.722656c-1.710938.535156-3.359376 1.09375-5.167969 1.597656 1.527343.425781 3.167969.816406 5.050781 1.125zm0 0"/><path d="m214.652344 283.9375c-3.683594-1.027344-8.039063-1.839844-14.929688-1.839844h-.132812c-10.105469 0-14.773438 1.75-19.871094 3.359375l7.714844 175.855469h30.003906l-7.71875-175.855469c1.628906-.511719 3.207031-1.039062 4.933594-1.519531zm0 0"/><path d="m267.1875 288.097656c11.804688 0 16.171875-2.382812 22.472656-4.144531-3.707031-1.035156-8.078125-1.855469-15.003906-1.855469-11.800781 0-16.167969 2.382813-22.46875 4.144532 3.703125 1.035156 8.066406 1.855468 15 1.855468zm0 0"/><path d="m99.46875 288.097656c11.804688 0 16.171875-2.382812 22.472656-4.144531-3.707031-1.035156-8.078125-1.855469-15.003906-1.855469-11.800781 0-16.167969 2.382813-22.46875 4.144532 3.703125 1.035156 8.066406 1.855468 15 1.855468zm0 0"/><path d="m164.5 287.375.121094-2.722656c-1.710938.535156-3.363282 1.09375-5.171875 1.597656 1.527343.425781 3.164062.816406 5.050781 1.125zm0 0"/><path d="m46.933594 283.9375c-3.683594-1.027344-8.039063-1.839844-14.929688-1.839844h-.132812c-10.105469 0-14.773438 1.75-19.871094 3.359375l7.714844 175.855469h30.003906l-7.714844-175.855469c1.621094-.511719 3.203125-1.039062 4.929688-1.519531zm0 0"/><path d="m499.9375 287.375.121094-2.722656c-1.710938.535156-3.363282 1.09375-5.171875 1.597656 1.527343.425781 3.167969.816406 5.050781 1.125zm0 0"/><path d="m434.90625 288.097656c11.804688 0 16.171875-2.382812 22.472656-4.144531-3.707031-1.035156-8.078125-1.855469-15.003906-1.855469-11.800781 0-16.167969 2.382813-22.46875 4.144532 3.703125 1.035156 8.066406 1.855468 15 1.855468zm0 0"/><path d="m382.371094 283.9375c-3.683594-1.027344-8.039063-1.839844-14.925782-1.839844h-.132812c-10.109375 0-14.777344 1.75-19.875 3.359375l7.71875 175.855469h30l-7.714844-175.855469c1.625-.511719 3.203125-1.039062 4.929688-1.519531zm0 0"/></g><path d="m102.578125 208.574219h15v15h-15zm0 0" fill="#fff"/><path d="m127.578125 208.574219h15v15h-15zm0 0" fill="#fff"/><path d="m50.988281 208.574219h41.589844v15h-41.589844zm0 0" fill="#fff"/><path d="m69.445312 295.597656c10.539063 0 16.105469-1.78125 21.019532-3.355468 4.429687-1.417969 8.25-2.644532 16.445312-2.644532 8.199219 0 12.03125 1.226563 16.472656 2.648438 4.921876 1.574218 10.503907 3.359375 21.039063 3.359375v-15.003907c-8.195313 0-12.03125-1.222656-16.46875-2.644531-4.925781-1.574219-10.503906-3.359375-21.042969-3.359375-10.539062 0-16.105468 1.785156-21.019531 3.359375-4.429687 1.417969-8.253906 2.640625-16.449219 2.640625-8.191406 0-12.015625-1.222656-16.441406-2.640625-4.914062-1.574219-10.480469-3.359375-21.019531-3.359375v15c8.195312 0 12.019531 1.226563 16.441406 2.644532 4.917969 1.574218 10.484375 3.355468 21.023437 3.355468zm0 0"/><path d="m110.3125 323.707031.65625-14.984375 14.988281.65625-.65625 14.988282zm0 0" fill="#fff"/><path d="m109.214844 348.6875.660156-14.988281 14.984375.660156-.65625 14.984375zm0 0" fill="#fff"/><path d="m106.265625 415.980469 2.511719-57.304688 14.984375.660157-2.511719 57.300781zm0 0" fill="#fff"/><path d="m295.308594 208.574219h15v15h-15zm0 0" fill="#fff"/><path d="m218.71875 208.574219h41.589844v15h-41.589844zm0 0" fill="#fff"/><path d="m270.308594 208.574219h15v15h-15zm0 0" fill="#fff"/><path d="m237.175781 295.597656c10.539063 0 16.105469-1.78125 21.023438-3.355468 4.425781-1.417969 8.25-2.644532 16.441406-2.644532 8.199219 0 12.035156 1.226563 16.472656 2.648438 4.925781 1.574218 10.503907 3.359375 21.042969 3.359375v-15.003907c-8.195312 0-12.03125-1.222656-16.472656-2.644531-4.921875-1.574219-10.503906-3.359375-21.042969-3.359375-10.535156 0-16.105469 1.785156-21.019531 3.359375-4.429688 1.417969-8.25 2.640625-16.445313 2.640625-8.195312 0-12.015625-1.222656-16.441406-2.640625-4.914063-1.574219-10.484375-3.359375-21.023437-3.359375v15c8.195312 0 12.019531 1.226563 16.445312 2.644532 4.914062 1.574218 10.480469 3.355468 21.019531 3.355468zm0 0"/><path d="m278.042969 323.714844.65625-14.984375 14.988281.65625-.660156 14.984375zm0 0" fill="#fff"/><path d="m273.992188 415.988281 2.511718-57.304687 14.988282.65625-2.511719 57.304687zm0 0" fill="#fff"/><path d="m276.945312 348.691406.65625-14.984375 14.988282.65625-.65625 14.988281zm0 0" fill="#fff"/><path d="m0 183.570312 12.515625 285.242188h151.507813l8.109374-184.871094 8.113282 184.871094h151.507812l8.113282-184.871094 8.109374 184.871094h151.507813l12.515625-285.242188zm149.667969 270.242188h-122.796875l-11.199219-255.242188h145.195313zm167.730469 0h-122.796876l-11.199218-255.242188h145.195312zm167.730468 0h-122.796875l-11.195312-255.242188h145.191406zm0 0"/><path d="m463.039062 208.574219h15.003907v15h-15.003907zm0 0" fill="#fff"/><path d="m438.039062 208.574219h15v15h-15zm0 0" fill="#fff"/><path d="m386.449219 208.574219h41.589843v15h-41.589843zm0 0" fill="#fff"/><path d="m383.886719 292.242188c4.914062 1.574218 10.480469 3.355468 21.019531 3.355468s16.105469-1.78125 21.023438-3.355468c4.425781-1.417969 8.25-2.644532 16.445312-2.644532s12.03125 1.226563 16.472656 2.648438c4.921875 1.574218 10.5 3.359375 21.039063 3.359375v-15.003907c-8.195313 0-12.03125-1.222656-16.472657-2.644531-4.921874-1.574219-10.503906-3.359375-21.039062-3.359375-10.539062 0-16.109375 1.785156-21.023438 3.359375-4.425781 1.417969-8.25 2.640625-16.445312 2.640625-8.191406 0-12.015625-1.222656-16.441406-2.640625-4.914063-1.574219-10.484375-3.359375-21.019532-3.359375h-.132812v15h.132812c8.191407 0 12.015626 1.226563 16.441407 2.644532zm0 0"/><path d="m441.722656 415.996094 2.511719-57.304688 14.984375.65625-2.511719 57.304688zm0 0" fill="#fff"/><path d="m445.769531 323.722656.660157-14.988281 14.984374.660156-.65625 14.984375zm0 0" fill="#fff"/><path d="m444.675781 348.699219.65625-14.984375 14.984375.65625-.65625 14.984375zm0 0" fill="#fff"/><path d="m315.445312 68.292969-28.753906-27.496094-41.363281 43.257813-17.75-22.007813-30.964844 24.976563 46.179688 57.253906zm-90.125 14.847656 19.050782 23.625 42.796875-44.753906 7.066406 6.757812-50.484375 52.800781-26.042969-32.289062zm0 0"/><path d="m256 176.578125c48.683594 0 88.289062-39.605469 88.289062-88.289063 0-48.683593-39.605468-88.289062-88.289062-88.289062s-88.289062 39.605469-88.289062 88.289062c0 48.683594 39.605468 88.289063 88.289062 88.289063zm0-161.578125c40.410156 0 73.289062 32.878906 73.289062 73.289062 0 40.410157-32.878906 73.289063-73.289062 73.289063s-73.289062-32.878906-73.289062-73.289063c0-40.410156 32.878906-73.289062 73.289062-73.289062zm0 0"/></svg>