<svg height="512pt" viewBox="0 0 512 512" width="512pt" xmlns="http://www.w3.org/2000/svg"><path d="m417.285156 311.507812c0 88.476563-71.664062 160.140626-160.144531 160.140626-88.476563 0-160.140625-71.664063-160.140625-160.140626 0-128.117187 160.140625-272.246093 160.140625-272.246093s160.144531 144.128906 160.144531 272.246093zm0 0" fill="#c2fa93"/><path d="m257.140625 39.261719s-4.546875 4.109375-12.007813 11.421875c37.148438 36.417968 148.132813 154.132812 148.132813 260.820312 0 84.425782-65.289063 153.382813-148.132813 159.539063 3.980469.296875 7.957032.605469 12.007813.605469 88.480469 0 160.144531-71.664063 160.144531-160.144532 0-128.113281-160.144531-272.242187-160.144531-272.242187zm0 0" fill="#8edf78"/><path d="m32.941406 183.390625c13.292969 0 24.019532 10.730469 24.019532 24.023437 0 13.289063-10.726563 24.019532-24.019532 24.019532-13.292968 0-24.023437-10.730469-24.023437-24.019532 0-13.292968 10.730469-24.023437 24.023437-24.023437zm0 0" fill="#cdd2e1"/><path d="m8.917969 471.648438h64.058593v32.03125h-64.058593zm0 0" fill="#e9edf5"/><path d="m377.25 463.644531h32.027344v40.035157h-32.027344zm0 0" fill="#ffee6e"/><path d="m441.308594 415.597656h32.027344v88.082032h-32.027344zm0 0" fill="#b5efff"/><path d="m481.34375 183.390625c13.292969 0 24.023438 10.730469 24.023438 24.023437 0 13.289063-10.730469 24.019532-24.023438 24.019532s-24.019531-10.730469-24.019531-24.019532c0-13.292968 10.726562-24.023437 24.019531-24.023437zm0 0" fill="#cdd2e1"/><path d="m409.277344 7.234375h64.058594v32.027344h-64.058594zm0 0" fill="#e9edf5"/><path d="m137.035156 71.289062h-64.058594v-64.054687c35.390626 0 64.058594 28.664063 64.058594 64.054687zm0 0" fill="#e9edf5"/><path d="m72.976562 7.234375v64.054687l-45.320312 45.320313c-11.53125-11.609375-18.738281-27.625-18.738281-45.320313 0-35.390624 28.667969-64.054687 64.058593-64.054687zm0 0" fill="#e0aea2"/><path d="m72.976562 71.289062h64.058594c0 35.394532-28.667968 64.058594-64.058594 64.058594-17.695312 0-33.710937-7.207031-45.320312-18.738281zm0 0" fill="#ffee6e"/><path d="m248.683594 159.683594h15.09375v16.015625h-15.09375zm0 0" fill="#fff"/><path d="m248.683594 127.652344h15.09375v16.015625h-15.09375zm0 0" fill="#fff"/><path d="m256.230469 49.894531c11.949219 11.351563 43.273437 42.269531 74.242187 82.5625 35.746094 46.503907 78.355469 115.371094 78.355469 179.363281 0 33.351563-10.550781 65.027344-30.515625 91.59375l12.066406 9.066407c21.945313-29.203125 33.542969-64.011719 33.542969-100.660157 0-30.355468-8.664063-63.941406-25.757813-99.832031-13.511718-28.371093-32.3125-58.296875-55.878906-88.9375-39.996094-51.988281-80.601562-88.71875-81.007812-89.085937l-5.046875-4.542969-5.050781 4.542969c-.40625.367187-41.011719 37.097656-81.003907 89.089844l11.960938 9.203124c30.921875-40.195312 62.164062-71.03125 74.09375-82.363281zm0 0"/><path d="m365.230469 418.640625c-27.164063 27.714844-62.949219 43.738281-101.453125 45.59375v-40.3125c0-49.734375 73.953125-72.621094 74.699218-72.847656l-2.175781-7.226563-2.167969-7.226562c-.859374.257812-21.292968 6.46875-41.980468 19.914062-11.8125 7.679688-21.304688 16.195313-28.375 25.355469v-46.050781c0-49.730469 73.953125-72.621094 74.699218-72.847656l-2.175781-7.226563-2.167969-7.226563c-.859374.257813-21.292968 6.46875-41.980468 19.917969-11.8125 7.679688-21.304688 16.191407-28.375 25.351563v-102.097656h-15.09375v62.066406c-7.070313-9.164063-16.5625-17.675782-28.378906-25.355469-20.6875-13.445313-41.117188-19.660156-41.976563-19.917969l-4.34375 14.457032c.746094.226562 74.699219 23.113281 74.699219 72.84375v46.050781c-7.070313-9.160157-16.5625-17.675781-28.375-25.351563-20.6875-13.449218-41.121094-19.664062-41.980469-19.921875l-4.339844 14.457031c.746094.226563 74.695313 22.988282 74.695313 72.847657v80.34375c-80.652344-3.949219-145.050782-70.800781-145.050782-152.410157 0-47.175781 22.449219-102.265624 66.722657-163.742187l-12.246094-8.820313c-46.164063 64.097657-69.570313 122.152344-69.570313 172.5625 0 92.464844 75.226563 167.6875 167.691407 167.6875 45.445312 0 87.984375-17.863281 119.777343-50.304687zm0 0"/><path d="m343.847656 15.09375h40.496094v-15.09375h-55.589844v31.566406h15.09375zm0 0"/><path d="m400.359375 64.054688h80.070313v15.09375h-80.070313zm0 0"/><path d="m400.359375 96.085938h80.070313v15.09375h-80.070313zm0 0"/><path d="m440.394531 128.113281h40.035157v15.09375h-40.035157zm0 0"/><path d="m136.582031 496.445312h-40.496093v15.09375h55.589843v-31.566406h-15.09375zm0 0"/><path d="m0 432.386719h80.070312v15.09375h-80.070312zm0 0"/><path d="m0 400.359375h80.070312v15.09375h-80.070312zm0 0"/><path d="m0 368.332031h40.035156v15.09375h-40.035156zm0 0"/><path d="m479.972656 0h-79.152344v47.121094h79.152344zm-15.09375 32.027344h-48.964844v-16.933594h48.964844zm0 0"/><path d="m.460938 511.539062h79.148437v-47.121093h-79.148437zm15.09375-32.027343h48.960937v16.933593h-48.960937zm0 0"/><path d="m72.0625 143.207031c39.484375 0 71.605469-32.121093 71.605469-71.605469 0-39.480468-32.121094-71.601562-71.605469-71.601562-39.480469 0-71.601562 32.121094-71.601562 71.601562 0 19.066407 7.433593 37.050782 20.964843 50.675782 13.589844 13.496094 31.570313 20.929687 50.636719 20.929687zm0-15.09375c-12.519531 0-24.449219-4.078125-34.273438-11.5625l37.402344-37.402343h52.863282c-3.699219 27.605468-27.390626 48.964843-55.992188 48.964843zm55.992188-64.058593h-48.445313v-48.441407c25.132813 3.371094 45.078125 23.3125 48.445313 48.441407zm-63.539063-48.441407v52.863281l-37.394531 37.398438c-7.496094-9.839844-11.566406-21.761719-11.566406-34.273438 0-28.597656 21.359374-52.285156 48.960937-55.988281zm0 0"/><path d="m496.90625 496.445312h-16.933594v-88.078124h-47.125v88.078124h-16.933594v-40.035156h-47.121093v40.035156h-32.492188v15.09375h175.699219v-127.652343h-15.09375zm-96.085938 0h-16.933593v-24.941406h16.933593zm64.058594 0h-16.9375v-72.984374h16.9375zm0 0"/><path d="m449.78125 200.179688h-33.40625v15.09375h33.40625c3.394531 13.773437 15.84375 24.019531 30.648438 24.019531 17.410156 0 31.570312-14.160157 31.570312-31.566407s-14.160156-31.570312-31.570312-31.570312c-14.804688 0-27.253907 10.25-30.648438 24.023438zm47.125 7.546874c0 9.082032-7.390625 16.472657-16.476562 16.472657-9.082032 0-16.472657-7.390625-16.472657-16.472657 0-9.085937 7.390625-16.476562 16.472657-16.476562 9.085937 0 16.476562 7.390625 16.476562 16.476562zm0 0"/><path d="m32.027344 239.292969c14.804687 0 27.257812-10.246094 30.652344-24.019531h33.40625v-15.09375h-33.40625c-3.394532-13.773438-15.847657-24.023438-30.652344-24.023438-17.40625 0-31.566406 14.164062-31.566406 31.570312s14.160156 31.566407 31.566406 31.566407zm0-48.042969c9.085937 0 16.476562 7.390625 16.476562 16.476562 0 9.082032-7.390625 16.472657-16.476562 16.472657-9.082032 0-16.472656-7.390625-16.472656-16.472657 0-9.085937 7.390624-16.476562 16.472656-16.476562zm0 0"/></svg>