<svg id="Layer_3" enable-background="new 0 0 64 64" height="512" viewBox="0 0 64 64" width="512" xmlns="http://www.w3.org/2000/svg"><g><circle cx="3" cy="18" fill="#fdf57a" r="2"/></g><g><path d="m63 4v5h-5v-2-3z" fill="#f14950"/></g><path d="m59 58h4v5h-62v-5h9l8-7h5 3l3-3h3 3 6l5 5h8z" fill="#cc8964"/><path d="m63 58v5h-62v-3h25.75c6.213 0 11.25-5.037 11.25-11.25v-.75h3l5 5h8l5 5z" fill="#9a4738"/><path d="m12 29s15.9 4.42 19.48 8.27c-14.6 7.36-19.48-8.27-19.48-8.27z" fill="#879a39"/><path d="m16 1c3.94 2.95 15.63 17.53 15.99 17.99-.49-.18-15.99-6.18-15.99-17.99z" fill="#879a39"/><path d="m12 29c11-6 20 8 20 8-.17.09-.35.18-.52.27-3.58-3.85-19.48-8.27-19.48-8.27z" fill="#aac348"/><path d="m32 18.98v.02s0 0-.01-.01c-.36-.46-12.05-15.04-15.99-17.99 0 0 15.97 3.99 16 17.96z" fill="#aac348"/><g fill="#cf735b"><circle cx="21" cy="55" r="1"/><circle cx="28" cy="55" r="1"/><circle cx="33" cy="52" r="1"/><circle cx="37" cy="55" r="1"/><circle cx="43" cy="55" r="1"/></g><g><path d="m32 49c-.552 0-1-.447-1-1v-39c0-.552.448-1 1-1s1 .448 1 1v39c0 .553-.448 1-1 1z" fill="#bbcf6b"/></g><g><circle cx="1" cy="36" fill="#7d7b80" r="1"/></g><g><circle cx="1" cy="46" fill="#7d7b80" r="1"/></g><g><circle cx="63" cy="40" fill="#7d7b80" r="1"/></g><g><path d="m11 37h-6c-.552 0-1-.447-1-1s.448-1 1-1h6c.552 0 1 .447 1 1s-.448 1-1 1z" fill="#7d7b80"/></g><g><path d="m20 49c-.256 0-.512-.098-.707-.293l-1.707-1.707h-12.586c-.552 0-1-.447-1-1s.448-1 1-1h13c.265 0 .52.105.707.293l2 2c.391.391.391 1.023 0 1.414-.195.195-.451.293-.707.293z" fill="#7d7b80"/></g><g><path d="m59 41h-3c-.266 0-.52-.105-.707-.293l-2.707-2.707h-2.586c-.553 0-1-.447-1-1s.447-1 1-1h3c.266 0 .52.105.707.293l2.707 2.707h2.586c.553 0 1 .447 1 1s-.447 1-1 1z" fill="#7d7b80"/></g><g><path d="m29 59h-5c-.552 0-1-.447-1-1s.448-1 1-1h5c.552 0 1 .447 1 1s-.448 1-1 1z" fill="#cf735b"/></g><g><path d="m49 59h-14c-.553 0-1-.447-1-1s.447-1 1-1h14c.553 0 1 .447 1 1s-.447 1-1 1z" fill="#cf735b"/></g><g><path d="m63 16h-9c-.553 0-1-.448-1-1s.447-1 1-1h9c.553 0 1 .448 1 1s-.447 1-1 1z" fill="#7d7b80"/></g><g><path d="m61 20h-7c-.553 0-1-.448-1-1s.447-1 1-1h7c.553 0 1 .448 1 1s-.447 1-1 1z" fill="#7d7b80"/></g><g><path d="m59 24h-5c-.553 0-1-.448-1-1s.447-1 1-1h5c.553 0 1 .448 1 1s-.447 1-1 1z" fill="#7d7b80"/></g><g><path d="m6 29h-5c-.552 0-1-.448-1-1s.448-1 1-1h5c.552 0 1 .448 1 1s-.448 1-1 1z" fill="#7d7b80"/></g><g fill="#7d7b80"><path d="m20.707 17.293c-.187-.187-.442-.293-.707-.293h-8v-6c0-.265-.105-.52-.293-.707l-7-7c-.391-.391-1.023-.391-1.414 0s-.391 1.023 0 1.414l6.707 6.707v5.586h-4.184c-.414-1.161-1.514-2-2.816-2-1.654 0-3 1.346-3 3s1.346 3 3 3c1.302 0 2.402-.839 2.816-2h13.77l8.707 8.707c.195.195.451.293.707.293s.512-.098.707-.293c.391-.391.391-1.023 0-1.414zm-17.707 1.707c-.551 0-1-.449-1-1s.449-1 1-1 1 .449 1 1-.449 1-1 1z"/><path d="m63 3h-5c-.553 0-1 .448-1 1v2h-2c-.266 0-.52.105-.707.293l-4.707 4.707h-2.586c-.553 0-1 .448-1 1s.447 1 1 1h3c.266 0 .52-.105.707-.293l4.707-4.707h1.586v1c0 .552.447 1 1 1h5c.553 0 1-.448 1-1v-5c0-.552-.447-1-1-1zm-1 5h-3v-3h3z"/><path d="m8 23h-7c-.552 0-1 .448-1 1s.448 1 1 1h7c.552 0 1-.448 1-1s-.448-1-1-1z"/></g><path d="m32 18.98c.1-.61 2.27-12.98 13-12.98l-13 13s0-.01 0-.02z" fill="#aac348"/><path d="m32.01 36.99c.17-.5 6.19-16.97 18.99-15.99-3.94 5.91-18.53 15.69-18.99 15.99z" fill="#aac348"/><path d="m32 19 13-13s-2 13-13 13z" fill="#879a39"/><path d="m32.01 36.99c.46-.3 15.05-10.08 18.99-15.99 0 0-2 28-19 16 0 0 0 0 .01-.01z" fill="#879a39"/><path d="m44.099 24.345c-.886.352-1.664.862-2.312 1.565-.436.472.27 1.181.707.707.526-.571 1.147-1.021 1.871-1.308.591-.235.333-1.202-.266-.964z" fill="#fff"/><path d="m40.625 26.875c-.643 0-.645 1 0 1 .643 0 .645-1 0-1z" fill="#fff"/></svg>